<svg width="203" height="19" viewBox="0 0 203 19" fill="none" xmlns="http://www.w3.org/2000/svg">
<path opacity="0.7" d="M53.2068 18.7231L53.3598 18.0903C55.7865 18.0824 54.0642 18.8102 56.3148 18.6599C57.1951 17.766 60.0427 18.7548 60.8235 18.2802C60.8082 18.3514 61.9029 18.3751 61.834 18.6599C62.1708 18.1774 62.9669 18.5491 63.6559 18.4226C63.9085 18.2881 63.4722 18.2802 63.2808 18.1299L64.8653 17.9559C65.4854 18.1141 65.6385 18.3988 64.9649 18.4542C69.1139 18.6282 89.0475 19.0949 93.5181 18.8497C92.9439 18.4858 91.566 18.7311 91.0378 18.1536C92.2167 17.8293 92.7755 18.2644 93.296 17.9242C93.7477 18.7785 95.8911 18.1299 96.7868 19L97.1235 18.5175L97.713 18.8181C102.911 18.3118 98.8995 18.5729 103.508 18.6836C106.172 18.6124 107.443 17.9321 108.928 18.1853C108.706 18.1774 108.116 17.8847 108.813 17.7581C108.928 18.1853 110.65 17.4496 110.987 17.8847C111.66 17.8293 113.857 17.8847 113.115 17.2993C113.49 17.592 115.442 17.7107 114.278 17.9638C114.937 17.9796 115.58 18.0666 116.054 17.9401L115.205 17.7739C117.432 17.6869 118.649 18.1378 120.104 17.6157L119.277 17.3863C120.609 17.3468 121.727 17.3072 122.247 17.8847L120.877 18.0587C123.089 18.0429 124.421 18.0033 126.266 17.6948L125.608 17.679C127.958 17.1016 140.229 16.627 142.395 15.9072L141.4 15.4563L143.26 15.0766C143.038 15.0687 142.365 16.5321 142.181 16.3818C146.169 16.3422 166.891 15.9942 170.573 16.2948C172.058 16.54 170.841 17.0067 170.826 17.0779C172.633 16.9117 171.607 16.6032 173.145 16.6428C173.566 16.7219 173.061 16.9908 172.824 17.0541C173.498 16.9988 174.118 17.157 174.171 16.9434C173.329 16.7773 173.689 16.2236 173.329 15.8676L175.304 15.9151L175.22 16.2631C175.664 16.271 176.338 15.306 178.282 15.4958C181.558 15.6461 185.118 15.5275 188.41 15.6066C188.356 15.8201 187.667 15.9388 186.97 16.0654C187.414 16.0733 188.088 16.0258 188.494 16.1761C187.698 15.8043 189.879 15.9309 189.252 15.7727C191.663 14.9184 194.786 15.7015 196.914 15.1162C197.027 14.6419 197.715 11.6521 198.958 8C199.746 5.6828 201.182 2.90985 201.477 0.949209C202.135 0.965029 202.793 0.980849 203 1.05995C202.832 0.846378 201.53 0.743547 200.841 0.862198L200.719 1.35262C199.126 1.52664 200.344 1.05995 198.797 1.09159C198.713 0.688177 200.145 0.601166 201.4 0.561615C200.267 0.514155 199.142 0.221482 198.683 0.664446C197.619 0.498335 198.797 0.174022 197.519 0C196.608 0.118651 195.406 0.514155 194.357 0.276853L194.373 0.205662C191.824 -0.205662 190.476 0.814738 188.142 0.403414L188.394 0.268943C187.567 0.0395504 185.952 0.348043 184.467 0.102831C184.888 0.181932 185.256 0.474604 184.368 0.522065C182.661 0.268943 181.497 0.522065 180.249 0.205662L179.055 0.601166C173.107 0.522065 149.629 1.08368 143.658 1.14696L143.896 1.08368C134.794 1.28143 116.123 1.24979 106.715 1.79559C105.261 1.40799 103.255 1.50291 101.74 1.39217C102.582 1.55037 102.291 1.82723 101.632 1.81141C97.0087 1.76395 101.318 2.08035 96.6413 2.24646C91.2598 2.61032 70.6526 2.199 65.8758 1.86678C63.3114 2.4363 60.1039 2.00916 57.5931 2.36511L57.8458 2.23064C55.1435 2.44421 39.8564 1.91424 36.7179 2.1199L37.1389 2.199C34.3984 2.55495 34.7735 1.93006 32.6148 1.73231C32.898 2.37302 30.5556 2.73689 29.66 2.78435L29.6906 2.64196C28.3433 2.75271 25.289 3.30641 23.0614 3.39342L23.1456 3.04538C21.2854 3.42506 17.7947 3.26686 16.4627 3.30641C13.4084 3.16403 8.70058 2.54704 4.61281 3.01374L1.97178 2.01707L1.58903 2.1199C1.58903 2.1199 -2.6595 14.1907 2.73728 16.7614L2.65308 17.1095L3.71714 17.062C4.99553 17.2361 5.58502 16.8247 5.50082 17.1807L3.74779 17.1411C5.03383 17.244 4.13819 17.4259 3.64827 17.6236C4.18412 17.6553 4.70462 17.7027 5.1333 17.8056C5.38591 17.6711 4.94958 17.6632 4.75055 17.5841C5.4395 17.4575 6.40404 17.1332 7.24609 17.2914C8.56275 17.3231 7.33029 17.8609 8.86895 17.8926C16.9679 18.1615 24.8144 18.5729 33.0052 18.4938C33.1889 18.6361 32.9669 18.6361 32.7296 18.6994C35.1945 18.5491 37.3916 18.6045 39.6345 18.4463C40.2545 18.6045 40.4306 18.8181 40.6143 18.9604C40.2316 18.6757 53.0001 18.644 53.2068 18.7231Z" fill="#F6C955"/>
</svg>
