<svg width="614" height="303" viewBox="0 0 614 303" fill="none" xmlns="http://www.w3.org/2000/svg">
<path d="M521.224 301C367.276 278.215 397.362 61 312 61C222.691 62.787 266.125 268.833 103.296 301" stroke="black" stroke-dasharray="3 3"/>
<path d="M13 301C351.24 294.522 256.5 -5.5 313 1.00001C366.5 -4.49999 274.76 294.522 613 301" stroke="black"/>
<path d="M336.646 31.6464C336.451 31.8417 336.451 32.1583 336.646 32.3536L339.828 35.5355C340.024 35.7308 340.34 35.7308 340.536 35.5355C340.731 35.3403 340.731 35.0237 340.536 34.8284L337.707 32L340.536 29.1716C340.731 28.9763 340.731 28.6597 340.536 28.4645C340.34 28.2692 340.024 28.2692 339.828 28.4645L336.646 31.6464ZM350 31.5H337V32.5H350V31.5Z" fill="black"/>
<path d="M111.329 294.355C111.258 294.622 110.984 294.78 110.717 294.708L106.37 293.544C106.103 293.472 105.945 293.198 106.017 292.931C106.088 292.665 106.362 292.506 106.629 292.578L110.493 293.613L111.528 289.749C111.599 289.483 111.874 289.324 112.14 289.396C112.407 289.467 112.565 289.741 112.494 290.008L111.329 294.355ZM104.779 282.717L111.279 293.975L110.413 294.475L103.913 283.217L104.779 282.717Z" fill="black"/>
<path d="M299.708 41.7168C299.78 41.9835 299.622 42.2577 299.355 42.3292L295.008 43.4938C294.741 43.5653 294.467 43.407 294.396 43.1403C294.324 42.8736 294.483 42.5994 294.749 42.5279L298.613 41.4926L297.578 37.6289C297.506 37.3622 297.665 37.088 297.931 37.0166C298.198 36.9451 298.472 37.1034 298.544 37.3701L299.708 41.7168ZM288.217 34.9132L299.475 41.4132L298.975 42.2792L287.717 35.7792L288.217 34.9132Z" fill="black"/>
<path d="M357.504 32.1973C356.539 31.9199 355.836 31.5801 355.395 31.1777C354.957 30.7715 354.738 30.2715 354.738 29.6777C354.738 29.0059 355.006 28.4512 355.541 28.0137C356.08 27.5723 356.779 27.3516 357.639 27.3516C358.225 27.3516 358.746 27.4648 359.203 27.6914C359.664 27.918 360.02 28.2305 360.27 28.6289C360.523 29.0273 360.65 29.4629 360.65 29.9355H359.52C359.52 29.4199 359.355 29.0156 359.027 28.7227C358.699 28.4258 358.236 28.2773 357.639 28.2773C357.084 28.2773 356.65 28.4004 356.338 28.6465C356.029 28.8887 355.875 29.2266 355.875 29.6602C355.875 30.0078 356.021 30.3027 356.314 30.5449C356.611 30.7832 357.113 31.002 357.82 31.2012C358.531 31.4004 359.086 31.6211 359.484 31.8633C359.887 32.1016 360.184 32.3809 360.375 32.7012C360.57 33.0215 360.668 33.3984 360.668 33.832C360.668 34.5234 360.398 35.0781 359.859 35.4961C359.32 35.9102 358.6 36.1172 357.697 36.1172C357.111 36.1172 356.564 36.0059 356.057 35.7832C355.549 35.5566 355.156 35.248 354.879 34.8574C354.605 34.4668 354.469 34.0234 354.469 33.5273H355.6C355.6 34.043 355.789 34.4512 356.168 34.752C356.551 35.0488 357.061 35.1973 357.697 35.1973C358.291 35.1973 358.746 35.0762 359.062 34.834C359.379 34.5918 359.537 34.2617 359.537 33.8438C359.537 33.4258 359.391 33.1035 359.098 32.877C358.805 32.6465 358.273 32.4199 357.504 32.1973ZM361.717 33.709C361.717 33.2988 361.83 32.9219 362.057 32.5781C362.287 32.2344 362.725 31.834 363.369 31.377C362.99 30.916 362.736 30.5449 362.607 30.2637C362.479 29.9824 362.414 29.7031 362.414 29.4258C362.414 28.7773 362.605 28.2695 362.988 27.9023C363.371 27.5352 363.891 27.3516 364.547 27.3516C365.133 27.3516 365.617 27.5234 366 27.8672C366.383 28.207 366.574 28.6367 366.574 29.1562C366.574 29.5 366.486 29.8184 366.311 30.1113C366.139 30.4004 365.836 30.7051 365.402 31.0254L364.775 31.4883L366.674 33.7559C366.939 33.248 367.072 32.6836 367.072 32.0625H368.051C368.051 33.0586 367.811 33.8848 367.33 34.541L368.549 36H367.248L366.68 35.3262C366.391 35.584 366.051 35.7812 365.66 35.918C365.273 36.0508 364.879 36.1172 364.477 36.1172C363.645 36.1172 362.977 35.8965 362.473 35.4551C361.969 35.0137 361.717 34.4316 361.717 33.709ZM364.477 35.2324C365.051 35.2324 365.576 35.0137 366.053 34.5762L363.973 32.0859L363.779 32.2266C363.127 32.707 362.801 33.2012 362.801 33.709C362.801 34.1699 362.949 34.5391 363.246 34.8164C363.547 35.0938 363.957 35.2324 364.477 35.2324ZM363.498 29.3906C363.498 29.7656 363.729 30.2344 364.189 30.7969L364.881 30.3105C365.146 30.123 365.328 29.9453 365.426 29.7773C365.523 29.6055 365.572 29.3984 365.572 29.1562C365.572 28.8945 365.475 28.6777 365.279 28.5059C365.084 28.3301 364.838 28.2422 364.541 28.2422C364.221 28.2422 363.967 28.3516 363.779 28.5703C363.592 28.7852 363.498 29.0586 363.498 29.3906ZM370.705 32.6602V36H369.58V27.4688H372.727C373.66 27.4688 374.391 27.707 374.918 28.1836C375.449 28.6602 375.715 29.291 375.715 30.0762C375.715 30.9043 375.455 31.543 374.936 31.9922C374.42 32.4375 373.68 32.6602 372.715 32.6602H370.705ZM370.705 31.7402H372.727C373.328 31.7402 373.789 31.5996 374.109 31.3184C374.43 31.0332 374.59 30.623 374.59 30.0879C374.59 29.5801 374.43 29.1738 374.109 28.8691C373.789 28.5645 373.35 28.4062 372.791 28.3945H370.705V31.7402ZM380.344 31.7227L380.777 27.4688H385.148V28.4707H381.697L381.439 30.7969C381.857 30.5508 382.332 30.4277 382.863 30.4277C383.641 30.4277 384.258 30.6855 384.715 31.2012C385.172 31.7129 385.4 32.4062 385.4 33.2812C385.4 34.1602 385.162 34.8535 384.686 35.3613C384.213 35.8652 383.551 36.1172 382.699 36.1172C381.945 36.1172 381.33 35.9082 380.854 35.4902C380.377 35.0723 380.105 34.4941 380.039 33.7559H381.064C381.131 34.2441 381.305 34.6133 381.586 34.8633C381.867 35.1094 382.238 35.2324 382.699 35.2324C383.203 35.2324 383.598 35.0605 383.883 34.7168C384.172 34.373 384.316 33.8984 384.316 33.293C384.316 32.7227 384.16 32.2656 383.848 31.9219C383.539 31.5742 383.127 31.4004 382.611 31.4004C382.139 31.4004 381.768 31.5039 381.498 31.7109L381.211 31.9453L380.344 31.7227ZM391.934 32.3613C391.934 33.6309 391.717 34.5742 391.283 35.1914C390.85 35.8086 390.172 36.1172 389.25 36.1172C388.34 36.1172 387.666 35.8164 387.229 35.2148C386.791 34.6094 386.564 33.707 386.549 32.5078V31.0605C386.549 29.8066 386.766 28.875 387.199 28.2656C387.633 27.6562 388.312 27.3516 389.238 27.3516C390.156 27.3516 390.832 27.6465 391.266 28.2363C391.699 28.8223 391.922 29.7285 391.934 30.9551V32.3613ZM390.85 30.8789C390.85 29.9609 390.721 29.293 390.463 28.875C390.205 28.4531 389.797 28.2422 389.238 28.2422C388.684 28.2422 388.279 28.4512 388.025 28.8691C387.771 29.2871 387.641 29.9297 387.633 30.7969V32.5312C387.633 33.4531 387.766 34.1348 388.031 34.5762C388.301 35.0137 388.707 35.2324 389.25 35.2324C389.785 35.2324 390.182 35.0254 390.439 34.6113C390.701 34.1973 390.838 33.5449 390.85 32.6543V30.8789ZM398.672 32.3613C398.672 33.6309 398.455 34.5742 398.021 35.1914C397.588 35.8086 396.91 36.1172 395.988 36.1172C395.078 36.1172 394.404 35.8164 393.967 35.2148C393.529 34.6094 393.303 33.707 393.287 32.5078V31.0605C393.287 29.8066 393.504 28.875 393.938 28.2656C394.371 27.6562 395.051 27.3516 395.977 27.3516C396.895 27.3516 397.57 27.6465 398.004 28.2363C398.438 28.8223 398.66 29.7285 398.672 30.9551V32.3613ZM397.588 30.8789C397.588 29.9609 397.459 29.293 397.201 28.875C396.943 28.4531 396.535 28.2422 395.977 28.2422C395.422 28.2422 395.018 28.4512 394.764 28.8691C394.51 29.2871 394.379 29.9297 394.371 30.7969V32.5312C394.371 33.4531 394.504 34.1348 394.77 34.5762C395.039 35.0137 395.445 35.2324 395.988 35.2324C396.523 35.2324 396.92 35.0254 397.178 34.6113C397.439 34.1973 397.576 33.5449 397.588 32.6543V30.8789ZM408.029 33.7734H404.455L403.652 36H402.492L405.75 27.4688H406.734L409.998 36H408.844L408.029 33.7734ZM404.795 32.8477H407.695L406.242 28.8574L404.795 32.8477ZM413.52 35.2324C413.906 35.2324 414.244 35.1152 414.533 34.8809C414.822 34.6465 414.982 34.3535 415.014 34.002H416.039C416.02 34.3652 415.895 34.7109 415.664 35.0391C415.434 35.3672 415.125 35.6289 414.738 35.8242C414.355 36.0195 413.949 36.1172 413.52 36.1172C412.656 36.1172 411.969 35.8301 411.457 35.2559C410.949 34.6777 410.695 33.8887 410.695 32.8887V32.707C410.695 32.0898 410.809 31.541 411.035 31.0605C411.262 30.5801 411.586 30.207 412.008 29.9414C412.434 29.6758 412.936 29.543 413.514 29.543C414.225 29.543 414.814 29.7559 415.283 30.1816C415.756 30.6074 416.008 31.1602 416.039 31.8398H415.014C414.982 31.4297 414.826 31.0938 414.545 30.832C414.268 30.5664 413.924 30.4336 413.514 30.4336C412.963 30.4336 412.535 30.6328 412.23 31.0312C411.93 31.4258 411.779 31.998 411.779 32.748V32.9531C411.779 33.6836 411.93 34.2461 412.23 34.6406C412.531 35.0352 412.961 35.2324 413.52 35.2324ZM418.729 28.125V29.6602H419.912V30.498H418.729V34.4297C418.729 34.6836 418.781 34.875 418.887 35.0039C418.992 35.1289 419.172 35.1914 419.426 35.1914C419.551 35.1914 419.723 35.168 419.941 35.1211V36C419.656 36.0781 419.379 36.1172 419.109 36.1172C418.625 36.1172 418.26 35.9707 418.014 35.6777C417.768 35.3848 417.645 34.9688 417.645 34.4297V30.498H416.49V29.6602H417.645V28.125H418.729ZM425.098 35.373C424.676 35.8691 424.057 36.1172 423.24 36.1172C422.564 36.1172 422.049 35.9219 421.693 35.5312C421.342 35.1367 421.164 34.5547 421.16 33.7852V29.6602H422.244V33.7559C422.244 34.7168 422.635 35.1973 423.416 35.1973C424.244 35.1973 424.795 34.8887 425.068 34.2715V29.6602H426.152V36H425.121L425.098 35.373ZM431.719 36C431.656 35.875 431.605 35.6523 431.566 35.332C431.062 35.8555 430.461 36.1172 429.762 36.1172C429.137 36.1172 428.623 35.9414 428.221 35.5898C427.822 35.2344 427.623 34.7852 427.623 34.2422C427.623 33.582 427.873 33.0703 428.373 32.707C428.877 32.3398 429.584 32.1562 430.494 32.1562H431.549V31.6582C431.549 31.2793 431.436 30.9785 431.209 30.7559C430.982 30.5293 430.648 30.416 430.207 30.416C429.82 30.416 429.496 30.5137 429.234 30.709C428.973 30.9043 428.842 31.1406 428.842 31.418H427.752C427.752 31.1016 427.863 30.7969 428.086 30.5039C428.312 30.207 428.617 29.9727 429 29.8008C429.387 29.6289 429.811 29.543 430.271 29.543C431.002 29.543 431.574 29.7266 431.988 30.0938C432.402 30.457 432.617 30.959 432.633 31.5996V34.5176C432.633 35.0996 432.707 35.5625 432.855 35.9062V36H431.719ZM429.92 35.1738C430.26 35.1738 430.582 35.0859 430.887 34.9102C431.191 34.7344 431.412 34.5059 431.549 34.2246V32.9238H430.699C429.371 32.9238 428.707 33.3125 428.707 34.0898C428.707 34.4297 428.82 34.6953 429.047 34.8867C429.273 35.0781 429.564 35.1738 429.92 35.1738ZM435.51 36H434.426V27H435.51V36ZM443.525 32.5488H441.521V36H440.391V27.4688H443.215C444.176 27.4688 444.914 27.6875 445.43 28.125C445.949 28.5625 446.209 29.1992 446.209 30.0352C446.209 30.5664 446.064 31.0293 445.775 31.4238C445.49 31.8184 445.092 32.1133 444.58 32.3086L446.584 35.9297V36H445.377L443.525 32.5488ZM441.521 31.6289H443.25C443.809 31.6289 444.252 31.4844 444.58 31.1953C444.912 30.9062 445.078 30.5195 445.078 30.0352C445.078 29.5078 444.92 29.1035 444.604 28.8223C444.291 28.541 443.838 28.3984 443.244 28.3945H441.521V31.6289ZM450.252 36.1172C449.393 36.1172 448.693 35.8359 448.154 35.2734C447.615 34.707 447.346 33.9512 447.346 33.0059V32.8066C447.346 32.1777 447.465 31.6172 447.703 31.125C447.945 30.6289 448.281 30.2422 448.711 29.9648C449.145 29.6836 449.613 29.543 450.117 29.543C450.941 29.543 451.582 29.8145 452.039 30.3574C452.496 30.9004 452.725 31.6777 452.725 32.6895V33.1406H448.43C448.445 33.7656 448.627 34.2715 448.975 34.6582C449.326 35.041 449.771 35.2324 450.311 35.2324C450.693 35.2324 451.018 35.1543 451.283 34.998C451.549 34.8418 451.781 34.6348 451.98 34.377L452.643 34.8926C452.111 35.709 451.314 36.1172 450.252 36.1172ZM450.117 30.4336C449.68 30.4336 449.312 30.5938 449.016 30.9141C448.719 31.2305 448.535 31.6758 448.465 32.25H451.641V32.168C451.609 31.6172 451.461 31.1914 451.195 30.8906C450.93 30.5859 450.57 30.4336 450.117 30.4336ZM455.455 28.125V29.6602H456.639V30.498H455.455V34.4297C455.455 34.6836 455.508 34.875 455.613 35.0039C455.719 35.1289 455.898 35.1914 456.152 35.1914C456.277 35.1914 456.449 35.168 456.668 35.1211V36C456.383 36.0781 456.105 36.1172 455.836 36.1172C455.352 36.1172 454.986 35.9707 454.74 35.6777C454.494 35.3848 454.371 34.9688 454.371 34.4297V30.498H453.217V29.6602H454.371V28.125H455.455ZM461.824 35.373C461.402 35.8691 460.783 36.1172 459.967 36.1172C459.291 36.1172 458.775 35.9219 458.42 35.5312C458.068 35.1367 457.891 34.5547 457.887 33.7852V29.6602H458.971V33.7559C458.971 34.7168 459.361 35.1973 460.143 35.1973C460.971 35.1973 461.521 34.8887 461.795 34.2715V29.6602H462.879V36H461.848L461.824 35.373ZM467.596 30.6328C467.432 30.6055 467.254 30.5918 467.062 30.5918C466.352 30.5918 465.869 30.8945 465.615 31.5V36H464.531V29.6602H465.586L465.604 30.3926C465.959 29.8262 466.463 29.543 467.115 29.543C467.326 29.543 467.486 29.5703 467.596 29.625V30.6328ZM469.623 29.6602L469.658 30.457C470.143 29.8477 470.775 29.543 471.557 29.543C472.896 29.543 473.572 30.2988 473.584 31.8105V36H472.5V31.8047C472.496 31.3477 472.391 31.0098 472.184 30.791C471.98 30.5723 471.662 30.4629 471.229 30.4629C470.877 30.4629 470.568 30.5566 470.303 30.7441C470.037 30.9316 469.83 31.1777 469.682 31.4824V36H468.598V29.6602H469.623ZM478.91 34.3184C478.91 34.0254 478.799 33.7988 478.576 33.6387C478.357 33.4746 477.973 33.334 477.422 33.2168C476.875 33.0996 476.439 32.959 476.115 32.7949C475.795 32.6309 475.557 32.4355 475.4 32.209C475.248 31.9824 475.172 31.7129 475.172 31.4004C475.172 30.8809 475.391 30.4414 475.828 30.082C476.27 29.7227 476.832 29.543 477.516 29.543C478.234 29.543 478.816 29.7285 479.262 30.0996C479.711 30.4707 479.936 30.9453 479.936 31.5234H478.846C478.846 31.2266 478.719 30.9707 478.465 30.7559C478.215 30.541 477.898 30.4336 477.516 30.4336C477.121 30.4336 476.812 30.5195 476.59 30.6914C476.367 30.8633 476.256 31.0879 476.256 31.3652C476.256 31.627 476.359 31.8242 476.566 31.957C476.773 32.0898 477.146 32.2168 477.686 32.3379C478.229 32.459 478.668 32.6035 479.004 32.7715C479.34 32.9395 479.588 33.1426 479.748 33.3809C479.912 33.6152 479.994 33.9023 479.994 34.2422C479.994 34.8086 479.768 35.2637 479.314 35.6074C478.861 35.9473 478.273 36.1172 477.551 36.1172C477.043 36.1172 476.594 36.0273 476.203 35.8477C475.812 35.668 475.506 35.418 475.283 35.0977C475.064 34.7734 474.955 34.4238 474.955 34.0488H476.039C476.059 34.4121 476.203 34.7012 476.473 34.916C476.746 35.127 477.105 35.2324 477.551 35.2324C477.961 35.2324 478.289 35.1504 478.535 34.9863C478.785 34.8184 478.91 34.5957 478.91 34.3184Z" fill="black"/>
<path d="M129.721 20.4688L132.51 27.4297L135.299 20.4688H136.758V29H135.633V25.6777L135.738 22.0918L132.938 29H132.076L129.281 22.1094L129.393 25.6777V29H128.268V20.4688H129.721ZM138.287 25.7715C138.287 25.1504 138.408 24.5918 138.65 24.0957C138.896 23.5996 139.236 23.2168 139.67 22.9473C140.107 22.6777 140.605 22.543 141.164 22.543C142.027 22.543 142.725 22.8418 143.256 23.4395C143.791 24.0371 144.059 24.832 144.059 25.8242V25.9004C144.059 26.5176 143.939 27.0723 143.701 27.5645C143.467 28.0527 143.129 28.4336 142.688 28.707C142.25 28.9805 141.746 29.1172 141.176 29.1172C140.316 29.1172 139.619 28.8184 139.084 28.2207C138.553 27.623 138.287 26.832 138.287 25.8477V25.7715ZM139.377 25.9004C139.377 26.6035 139.539 27.168 139.863 27.5938C140.191 28.0195 140.629 28.2324 141.176 28.2324C141.727 28.2324 142.164 28.0176 142.488 27.5879C142.812 27.1543 142.975 26.5488 142.975 25.7715C142.975 25.0762 142.809 24.5137 142.477 24.084C142.148 23.6504 141.711 23.4336 141.164 23.4336C140.629 23.4336 140.197 23.6465 139.869 24.0723C139.541 24.498 139.377 25.1074 139.377 25.9004ZM149.109 27.3184C149.109 27.0254 148.998 26.7988 148.775 26.6387C148.557 26.4746 148.172 26.334 147.621 26.2168C147.074 26.0996 146.639 25.959 146.314 25.7949C145.994 25.6309 145.756 25.4355 145.6 25.209C145.447 24.9824 145.371 24.7129 145.371 24.4004C145.371 23.8809 145.59 23.4414 146.027 23.082C146.469 22.7227 147.031 22.543 147.715 22.543C148.434 22.543 149.016 22.7285 149.461 23.0996C149.91 23.4707 150.135 23.9453 150.135 24.5234H149.045C149.045 24.2266 148.918 23.9707 148.664 23.7559C148.414 23.541 148.098 23.4336 147.715 23.4336C147.32 23.4336 147.012 23.5195 146.789 23.6914C146.566 23.8633 146.455 24.0879 146.455 24.3652C146.455 24.627 146.559 24.8242 146.766 24.957C146.973 25.0898 147.346 25.2168 147.885 25.3379C148.428 25.459 148.867 25.6035 149.203 25.7715C149.539 25.9395 149.787 26.1426 149.947 26.3809C150.111 26.6152 150.193 26.9023 150.193 27.2422C150.193 27.8086 149.967 28.2637 149.514 28.6074C149.061 28.9473 148.473 29.1172 147.75 29.1172C147.242 29.1172 146.793 29.0273 146.402 28.8477C146.012 28.668 145.705 28.418 145.482 28.0977C145.264 27.7734 145.154 27.4238 145.154 27.0488H146.238C146.258 27.4121 146.402 27.7012 146.672 27.916C146.945 28.127 147.305 28.2324 147.75 28.2324C148.16 28.2324 148.488 28.1504 148.734 27.9863C148.984 27.8184 149.109 27.5957 149.109 27.3184ZM153.076 21.125V22.6602H154.26V23.498H153.076V27.4297C153.076 27.6836 153.129 27.875 153.234 28.0039C153.34 28.1289 153.52 28.1914 153.773 28.1914C153.898 28.1914 154.07 28.168 154.289 28.1211V29C154.004 29.0781 153.727 29.1172 153.457 29.1172C152.973 29.1172 152.607 28.9707 152.361 28.6777C152.115 28.3848 151.992 27.9688 151.992 27.4297V23.498H150.838V22.6602H151.992V21.125H153.076ZM159.527 22.6602L159.557 23.3633C160.021 22.8164 160.648 22.543 161.438 22.543C162.324 22.543 162.928 22.8828 163.248 23.5625C163.459 23.2578 163.732 23.0117 164.068 22.8242C164.408 22.6367 164.809 22.543 165.27 22.543C166.66 22.543 167.367 23.2793 167.391 24.752V29H166.307V24.8164C166.307 24.3633 166.203 24.0254 165.996 23.8027C165.789 23.5762 165.441 23.4629 164.953 23.4629C164.551 23.4629 164.217 23.584 163.951 23.8262C163.686 24.0645 163.531 24.3867 163.488 24.793V29H162.398V24.8457C162.398 23.9238 161.947 23.4629 161.045 23.4629C160.334 23.4629 159.848 23.7656 159.586 24.3711V29H158.502V22.6602H159.527ZM168.744 25.7715C168.744 25.1504 168.865 24.5918 169.107 24.0957C169.354 23.5996 169.693 23.2168 170.127 22.9473C170.564 22.6777 171.062 22.543 171.621 22.543C172.484 22.543 173.182 22.8418 173.713 23.4395C174.248 24.0371 174.516 24.832 174.516 25.8242V25.9004C174.516 26.5176 174.396 27.0723 174.158 27.5645C173.924 28.0527 173.586 28.4336 173.145 28.707C172.707 28.9805 172.203 29.1172 171.633 29.1172C170.773 29.1172 170.076 28.8184 169.541 28.2207C169.01 27.623 168.744 26.832 168.744 25.8477V25.7715ZM169.834 25.9004C169.834 26.6035 169.996 27.168 170.32 27.5938C170.648 28.0195 171.086 28.2324 171.633 28.2324C172.184 28.2324 172.621 28.0176 172.945 27.5879C173.27 27.1543 173.432 26.5488 173.432 25.7715C173.432 25.0762 173.266 24.5137 172.934 24.084C172.605 23.6504 172.168 23.4336 171.621 23.4336C171.086 23.4336 170.654 23.6465 170.326 24.0723C169.998 24.498 169.834 25.1074 169.834 25.9004ZM177.873 27.5293L179.443 22.6602H180.551L178.277 29H177.451L175.154 22.6602H176.262L177.873 27.5293ZM184.143 29.1172C183.283 29.1172 182.584 28.8359 182.045 28.2734C181.506 27.707 181.236 26.9512 181.236 26.0059V25.8066C181.236 25.1777 181.355 24.6172 181.594 24.125C181.836 23.6289 182.172 23.2422 182.602 22.9648C183.035 22.6836 183.504 22.543 184.008 22.543C184.832 22.543 185.473 22.8145 185.93 23.3574C186.387 23.9004 186.615 24.6777 186.615 25.6895V26.1406H182.32C182.336 26.7656 182.518 27.2715 182.865 27.6582C183.217 28.041 183.662 28.2324 184.201 28.2324C184.584 28.2324 184.908 28.1543 185.174 27.998C185.439 27.8418 185.672 27.6348 185.871 27.377L186.533 27.8926C186.002 28.709 185.205 29.1172 184.143 29.1172ZM184.008 23.4336C183.57 23.4336 183.203 23.5938 182.906 23.9141C182.609 24.2305 182.426 24.6758 182.355 25.25H185.531V25.168C185.5 24.6172 185.352 24.1914 185.086 23.8906C184.82 23.5859 184.461 23.4336 184.008 23.4336ZM188.895 22.6602L188.924 23.3633C189.389 22.8164 190.016 22.543 190.805 22.543C191.691 22.543 192.295 22.8828 192.615 23.5625C192.826 23.2578 193.1 23.0117 193.436 22.8242C193.775 22.6367 194.176 22.543 194.637 22.543C196.027 22.543 196.734 23.2793 196.758 24.752V29H195.674V24.8164C195.674 24.3633 195.57 24.0254 195.363 23.8027C195.156 23.5762 194.809 23.4629 194.32 23.4629C193.918 23.4629 193.584 23.584 193.318 23.8262C193.053 24.0645 192.898 24.3867 192.855 24.793V29H191.766V24.8457C191.766 23.9238 191.314 23.4629 190.412 23.4629C189.701 23.4629 189.215 23.7656 188.953 24.3711V29H187.869V22.6602H188.895ZM201.029 29.1172C200.17 29.1172 199.471 28.8359 198.932 28.2734C198.393 27.707 198.123 26.9512 198.123 26.0059V25.8066C198.123 25.1777 198.242 24.6172 198.48 24.125C198.723 23.6289 199.059 23.2422 199.488 22.9648C199.922 22.6836 200.391 22.543 200.895 22.543C201.719 22.543 202.359 22.8145 202.816 23.3574C203.273 23.9004 203.502 24.6777 203.502 25.6895V26.1406H199.207C199.223 26.7656 199.404 27.2715 199.752 27.6582C200.104 28.041 200.549 28.2324 201.088 28.2324C201.471 28.2324 201.795 28.1543 202.061 27.998C202.326 27.8418 202.559 27.6348 202.758 27.377L203.42 27.8926C202.889 28.709 202.092 29.1172 201.029 29.1172ZM200.895 23.4336C200.457 23.4336 200.09 23.5938 199.793 23.9141C199.496 24.2305 199.312 24.6758 199.242 25.25H202.418V25.168C202.387 24.6172 202.238 24.1914 201.973 23.8906C201.707 23.5859 201.348 23.4336 200.895 23.4336ZM205.787 22.6602L205.822 23.457C206.307 22.8477 206.939 22.543 207.721 22.543C209.061 22.543 209.736 23.2988 209.748 24.8105V29H208.664V24.8047C208.66 24.3477 208.555 24.0098 208.348 23.791C208.145 23.5723 207.826 23.4629 207.393 23.4629C207.041 23.4629 206.732 23.5566 206.467 23.7441C206.201 23.9316 205.994 24.1777 205.846 24.4824V29H204.762V22.6602H205.787ZM212.854 21.125V22.6602H214.037V23.498H212.854V27.4297C212.854 27.6836 212.906 27.875 213.012 28.0039C213.117 28.1289 213.297 28.1914 213.551 28.1914C213.676 28.1914 213.848 28.168 214.066 28.1211V29C213.781 29.0781 213.504 29.1172 213.234 29.1172C212.75 29.1172 212.385 28.9707 212.139 28.6777C211.893 28.3848 211.77 27.9688 211.77 27.4297V23.498H210.615V22.6602H211.77V21.125H212.854ZM219 27.3184C219 27.0254 218.889 26.7988 218.666 26.6387C218.447 26.4746 218.062 26.334 217.512 26.2168C216.965 26.0996 216.529 25.959 216.205 25.7949C215.885 25.6309 215.646 25.4355 215.49 25.209C215.338 24.9824 215.262 24.7129 215.262 24.4004C215.262 23.8809 215.48 23.4414 215.918 23.082C216.359 22.7227 216.922 22.543 217.605 22.543C218.324 22.543 218.906 22.7285 219.352 23.0996C219.801 23.4707 220.025 23.9453 220.025 24.5234H218.936C218.936 24.2266 218.809 23.9707 218.555 23.7559C218.305 23.541 217.988 23.4336 217.605 23.4336C217.211 23.4336 216.902 23.5195 216.68 23.6914C216.457 23.8633 216.346 24.0879 216.346 24.3652C216.346 24.627 216.449 24.8242 216.656 24.957C216.863 25.0898 217.236 25.2168 217.775 25.3379C218.318 25.459 218.758 25.6035 219.094 25.7715C219.43 25.9395 219.678 26.1426 219.838 26.3809C220.002 26.6152 220.084 26.9023 220.084 27.2422C220.084 27.8086 219.857 28.2637 219.404 28.6074C218.951 28.9473 218.363 29.1172 217.641 29.1172C217.133 29.1172 216.684 29.0273 216.293 28.8477C215.902 28.668 215.596 28.418 215.373 28.0977C215.154 27.7734 215.045 27.4238 215.045 27.0488H216.129C216.148 27.4121 216.293 27.7012 216.562 27.916C216.836 28.127 217.195 28.2324 217.641 28.2324C218.051 28.2324 218.379 28.1504 218.625 27.9863C218.875 27.8184 219 27.5957 219 27.3184ZM228.387 29C228.324 28.875 228.273 28.6523 228.234 28.332C227.73 28.8555 227.129 29.1172 226.43 29.1172C225.805 29.1172 225.291 28.9414 224.889 28.5898C224.49 28.2344 224.291 27.7852 224.291 27.2422C224.291 26.582 224.541 26.0703 225.041 25.707C225.545 25.3398 226.252 25.1562 227.162 25.1562H228.217V24.6582C228.217 24.2793 228.104 23.9785 227.877 23.7559C227.65 23.5293 227.316 23.416 226.875 23.416C226.488 23.416 226.164 23.5137 225.902 23.709C225.641 23.9043 225.51 24.1406 225.51 24.418H224.42C224.42 24.1016 224.531 23.7969 224.754 23.5039C224.98 23.207 225.285 22.9727 225.668 22.8008C226.055 22.6289 226.479 22.543 226.939 22.543C227.67 22.543 228.242 22.7266 228.656 23.0938C229.07 23.457 229.285 23.959 229.301 24.5996V27.5176C229.301 28.0996 229.375 28.5625 229.523 28.9062V29H228.387ZM226.588 28.1738C226.928 28.1738 227.25 28.0859 227.555 27.9102C227.859 27.7344 228.08 27.5059 228.217 27.2246V25.9238H227.367C226.039 25.9238 225.375 26.3125 225.375 27.0898C225.375 27.4297 225.488 27.6953 225.715 27.8867C225.941 28.0781 226.232 28.1738 226.588 28.1738ZM234.064 23.6328C233.9 23.6055 233.723 23.5918 233.531 23.5918C232.82 23.5918 232.338 23.8945 232.084 24.5V29H231V22.6602H232.055L232.072 23.3926C232.428 22.8262 232.932 22.543 233.584 22.543C233.795 22.543 233.955 22.5703 234.064 22.625V23.6328ZM237.58 29.1172C236.721 29.1172 236.021 28.8359 235.482 28.2734C234.943 27.707 234.674 26.9512 234.674 26.0059V25.8066C234.674 25.1777 234.793 24.6172 235.031 24.125C235.273 23.6289 235.609 23.2422 236.039 22.9648C236.473 22.6836 236.941 22.543 237.445 22.543C238.27 22.543 238.91 22.8145 239.367 23.3574C239.824 23.9004 240.053 24.6777 240.053 25.6895V26.1406H235.758C235.773 26.7656 235.955 27.2715 236.303 27.6582C236.654 28.041 237.1 28.2324 237.639 28.2324C238.021 28.2324 238.346 28.1543 238.611 27.998C238.877 27.8418 239.109 27.6348 239.309 27.377L239.971 27.8926C239.439 28.709 238.643 29.1172 237.58 29.1172ZM237.445 23.4336C237.008 23.4336 236.641 23.5938 236.344 23.9141C236.047 24.2305 235.863 24.6758 235.793 25.25H238.969V25.168C238.938 24.6172 238.789 24.1914 238.523 23.8906C238.258 23.5859 237.898 23.4336 237.445 23.4336ZM247.553 27.248C247.553 27.041 247.449 26.8789 247.242 26.7617C247.039 26.6406 246.711 26.5332 246.258 26.4395C244.75 26.123 243.996 25.4824 243.996 24.5176C243.996 23.9551 244.229 23.4863 244.693 23.1113C245.162 22.7324 245.773 22.543 246.527 22.543C247.332 22.543 247.975 22.7324 248.455 23.1113C248.939 23.4902 249.182 23.9824 249.182 24.5879H247.488C247.488 24.3457 247.41 24.1465 247.254 23.9902C247.098 23.8301 246.854 23.75 246.521 23.75C246.236 23.75 246.016 23.8145 245.859 23.9434C245.703 24.0723 245.625 24.2363 245.625 24.4355C245.625 24.623 245.713 24.7754 245.889 24.8926C246.068 25.0059 246.369 25.1055 246.791 25.1914C247.213 25.2734 247.568 25.3672 247.857 25.4727C248.752 25.8008 249.199 26.3691 249.199 27.1777C249.199 27.7559 248.951 28.2246 248.455 28.584C247.959 28.9395 247.318 29.1172 246.533 29.1172C246.002 29.1172 245.529 29.0234 245.115 28.8359C244.705 28.6445 244.383 28.3848 244.148 28.0566C243.914 27.7246 243.797 27.3672 243.797 26.9844H245.402C245.418 27.2852 245.529 27.5156 245.736 27.6758C245.943 27.8359 246.221 27.916 246.568 27.916C246.893 27.916 247.137 27.8555 247.301 27.7344C247.469 27.6094 247.553 27.4473 247.553 27.248ZM251.883 22.6602L251.936 23.3691C252.385 22.8184 252.992 22.543 253.758 22.543C254.574 22.543 255.135 22.8652 255.439 23.5098C255.885 22.8652 256.52 22.543 257.344 22.543C258.031 22.543 258.543 22.7441 258.879 23.1465C259.215 23.5449 259.383 24.1465 259.383 24.9512V29H257.684V24.957C257.684 24.5977 257.613 24.3359 257.473 24.1719C257.332 24.0039 257.084 23.9199 256.729 23.9199C256.221 23.9199 255.869 24.1621 255.674 24.6465L255.68 29H253.986V24.9629C253.986 24.5957 253.914 24.3301 253.77 24.166C253.625 24.002 253.379 23.9199 253.031 23.9199C252.551 23.9199 252.203 24.1191 251.988 24.5176V29H250.295V22.6602H251.883ZM264.363 29C264.285 28.8477 264.229 28.6582 264.193 28.4316C263.783 28.8887 263.25 29.1172 262.594 29.1172C261.973 29.1172 261.457 28.9375 261.047 28.5781C260.641 28.2188 260.438 27.7656 260.438 27.2188C260.438 26.5469 260.686 26.0312 261.182 25.6719C261.682 25.3125 262.402 25.1309 263.344 25.127H264.123V24.7637C264.123 24.4707 264.047 24.2363 263.895 24.0605C263.746 23.8848 263.51 23.7969 263.186 23.7969C262.9 23.7969 262.676 23.8652 262.512 24.002C262.352 24.1387 262.271 24.3262 262.271 24.5645H260.578C260.578 24.1973 260.691 23.8574 260.918 23.5449C261.145 23.2324 261.465 22.9883 261.879 22.8125C262.293 22.6328 262.758 22.543 263.273 22.543C264.055 22.543 264.674 22.7402 265.131 23.1348C265.592 23.5254 265.822 24.0762 265.822 24.7871V27.5352C265.826 28.1367 265.91 28.5918 266.074 28.9004V29H264.363ZM262.963 27.8223C263.213 27.8223 263.443 27.7676 263.654 27.6582C263.865 27.5449 264.021 27.3945 264.123 27.207V26.1172H263.49C262.643 26.1172 262.191 26.4102 262.137 26.9961L262.131 27.0957C262.131 27.3066 262.205 27.4805 262.354 27.6172C262.502 27.7539 262.705 27.8223 262.963 27.8223ZM268.91 29H267.211V20H268.91V29ZM272.098 29H270.398V20H272.098V29ZM276.416 29.1172C275.486 29.1172 274.729 28.832 274.143 28.2617C273.561 27.6914 273.27 26.9316 273.27 25.9824V25.8184C273.27 25.1816 273.393 24.6133 273.639 24.1133C273.885 23.6094 274.232 23.2227 274.682 22.9531C275.135 22.6797 275.65 22.543 276.229 22.543C277.096 22.543 277.777 22.8164 278.273 23.3633C278.773 23.9102 279.023 24.6855 279.023 25.6895V26.3809H274.986C275.041 26.7949 275.205 27.127 275.479 27.377C275.756 27.627 276.105 27.752 276.527 27.752C277.18 27.752 277.689 27.5156 278.057 27.043L278.889 27.9746C278.635 28.334 278.291 28.6152 277.857 28.8184C277.424 29.0176 276.943 29.1172 276.416 29.1172ZM276.223 23.9141C275.887 23.9141 275.613 24.0273 275.402 24.2539C275.195 24.4805 275.062 24.8047 275.004 25.2266H277.359V25.0918C277.352 24.7168 277.25 24.4277 277.055 24.2246C276.859 24.0176 276.582 23.9141 276.223 23.9141ZM283.553 24.248C283.322 24.2168 283.119 24.2012 282.943 24.2012C282.303 24.2012 281.883 24.418 281.684 24.8516V29H279.99V22.6602H281.59L281.637 23.416C281.977 22.834 282.447 22.543 283.049 22.543C283.236 22.543 283.412 22.5684 283.576 22.6191L283.553 24.248ZM130.945 35.125V36.6602H132.129V37.498H130.945V41.4297C130.945 41.6836 130.998 41.875 131.104 42.0039C131.209 42.1289 131.389 42.1914 131.643 42.1914C131.768 42.1914 131.939 42.168 132.158 42.1211V43C131.873 43.0781 131.596 43.1172 131.326 43.1172C130.842 43.1172 130.477 42.9707 130.23 42.6777C129.984 42.3848 129.861 41.9688 129.861 41.4297V37.498H128.707V36.6602H129.861V35.125H130.945ZM134.484 37.4277C134.965 36.8379 135.59 36.543 136.359 36.543C137.699 36.543 138.375 37.2988 138.387 38.8105V43H137.303V38.8047C137.299 38.3477 137.193 38.0098 136.986 37.791C136.783 37.5723 136.465 37.4629 136.031 37.4629C135.68 37.4629 135.371 37.5566 135.105 37.7441C134.84 37.9316 134.633 38.1777 134.484 38.4824V43H133.4V34H134.484V37.4277ZM143.924 43C143.861 42.875 143.811 42.6523 143.771 42.332C143.268 42.8555 142.666 43.1172 141.967 43.1172C141.342 43.1172 140.828 42.9414 140.426 42.5898C140.027 42.2344 139.828 41.7852 139.828 41.2422C139.828 40.582 140.078 40.0703 140.578 39.707C141.082 39.3398 141.789 39.1562 142.699 39.1562H143.754V38.6582C143.754 38.2793 143.641 37.9785 143.414 37.7559C143.188 37.5293 142.854 37.416 142.412 37.416C142.025 37.416 141.701 37.5137 141.439 37.709C141.178 37.9043 141.047 38.1406 141.047 38.418H139.957C139.957 38.1016 140.068 37.7969 140.291 37.5039C140.518 37.207 140.822 36.9727 141.205 36.8008C141.592 36.6289 142.016 36.543 142.477 36.543C143.207 36.543 143.779 36.7266 144.193 37.0938C144.607 37.457 144.822 37.959 144.838 38.5996V41.5176C144.838 42.0996 144.912 42.5625 145.061 42.9062V43H143.924ZM142.125 42.1738C142.465 42.1738 142.787 42.0859 143.092 41.9102C143.396 41.7344 143.617 41.5059 143.754 41.2246V39.9238H142.904C141.576 39.9238 140.912 40.3125 140.912 41.0898C140.912 41.4297 141.025 41.6953 141.252 41.8867C141.479 42.0781 141.77 42.1738 142.125 42.1738ZM147.562 36.6602L147.598 37.457C148.082 36.8477 148.715 36.543 149.496 36.543C150.836 36.543 151.512 37.2988 151.523 38.8105V43H150.439V38.8047C150.436 38.3477 150.33 38.0098 150.123 37.791C149.92 37.5723 149.602 37.4629 149.168 37.4629C148.816 37.4629 148.508 37.5566 148.242 37.7441C147.977 37.9316 147.77 38.1777 147.621 38.4824V43H146.537V36.6602H147.562ZM158.766 43.1172C157.906 43.1172 157.207 42.8359 156.668 42.2734C156.129 41.707 155.859 40.9512 155.859 40.0059V39.8066C155.859 39.1777 155.979 38.6172 156.217 38.125C156.459 37.6289 156.795 37.2422 157.225 36.9648C157.658 36.6836 158.127 36.543 158.631 36.543C159.455 36.543 160.096 36.8145 160.553 37.3574C161.01 37.9004 161.238 38.6777 161.238 39.6895V40.1406H156.943C156.959 40.7656 157.141 41.2715 157.488 41.6582C157.84 42.041 158.285 42.2324 158.824 42.2324C159.207 42.2324 159.531 42.1543 159.797 41.998C160.062 41.8418 160.295 41.6348 160.494 41.377L161.156 41.8926C160.625 42.709 159.828 43.1172 158.766 43.1172ZM158.631 37.4336C158.193 37.4336 157.826 37.5938 157.529 37.9141C157.232 38.2305 157.049 38.6758 156.979 39.25H160.154V39.168C160.123 38.6172 159.975 38.1914 159.709 37.8906C159.443 37.5859 159.084 37.4336 158.631 37.4336ZM164.625 38.9746L166.031 36.6602H167.297L165.223 39.7949L167.361 43H166.107L164.643 40.627L163.178 43H161.918L164.057 39.7949L161.982 36.6602H163.236L164.625 38.9746ZM173.807 39.9004C173.807 40.8652 173.586 41.6426 173.145 42.2324C172.703 42.8223 172.105 43.1172 171.352 43.1172C170.582 43.1172 169.977 42.873 169.535 42.3848V45.4375H168.451V36.6602H169.441L169.494 37.3633C169.936 36.8164 170.549 36.543 171.334 36.543C172.096 36.543 172.697 36.8301 173.139 37.4043C173.584 37.9785 173.807 38.7773 173.807 39.8008V39.9004ZM172.723 39.7773C172.723 39.0625 172.57 38.498 172.266 38.084C171.961 37.6699 171.543 37.4629 171.012 37.4629C170.355 37.4629 169.863 37.7539 169.535 38.3359V41.3652C169.859 41.9434 170.355 42.2324 171.023 42.2324C171.543 42.2324 171.955 42.0273 172.26 41.6172C172.568 41.2031 172.723 40.5898 172.723 39.7773ZM177.82 43.1172C176.961 43.1172 176.262 42.8359 175.723 42.2734C175.184 41.707 174.914 40.9512 174.914 40.0059V39.8066C174.914 39.1777 175.033 38.6172 175.271 38.125C175.514 37.6289 175.85 37.2422 176.279 36.9648C176.713 36.6836 177.182 36.543 177.686 36.543C178.51 36.543 179.15 36.8145 179.607 37.3574C180.064 37.9004 180.293 38.6777 180.293 39.6895V40.1406H175.998C176.014 40.7656 176.195 41.2715 176.543 41.6582C176.895 42.041 177.34 42.2324 177.879 42.2324C178.262 42.2324 178.586 42.1543 178.852 41.998C179.117 41.8418 179.35 41.6348 179.549 41.377L180.211 41.8926C179.68 42.709 178.883 43.1172 177.82 43.1172ZM177.686 37.4336C177.248 37.4336 176.881 37.5938 176.584 37.9141C176.287 38.2305 176.104 38.6758 176.033 39.25H179.209V39.168C179.178 38.6172 179.029 38.1914 178.764 37.8906C178.498 37.5859 178.139 37.4336 177.686 37.4336ZM184.096 42.2324C184.482 42.2324 184.82 42.1152 185.109 41.8809C185.398 41.6465 185.559 41.3535 185.59 41.002H186.615C186.596 41.3652 186.471 41.7109 186.24 42.0391C186.01 42.3672 185.701 42.6289 185.314 42.8242C184.932 43.0195 184.525 43.1172 184.096 43.1172C183.232 43.1172 182.545 42.8301 182.033 42.2559C181.525 41.6777 181.271 40.8887 181.271 39.8887V39.707C181.271 39.0898 181.385 38.541 181.611 38.0605C181.838 37.5801 182.162 37.207 182.584 36.9414C183.01 36.6758 183.512 36.543 184.09 36.543C184.801 36.543 185.391 36.7559 185.859 37.1816C186.332 37.6074 186.584 38.1602 186.615 38.8398H185.59C185.559 38.4297 185.402 38.0938 185.121 37.832C184.844 37.5664 184.5 37.4336 184.09 37.4336C183.539 37.4336 183.111 37.6328 182.807 38.0312C182.506 38.4258 182.355 38.998 182.355 39.748V39.9531C182.355 40.6836 182.506 41.2461 182.807 41.6406C183.107 42.0352 183.537 42.2324 184.096 42.2324ZM189.305 35.125V36.6602H190.488V37.498H189.305V41.4297C189.305 41.6836 189.357 41.875 189.463 42.0039C189.568 42.1289 189.748 42.1914 190.002 42.1914C190.127 42.1914 190.299 42.168 190.518 42.1211V43C190.232 43.0781 189.955 43.1172 189.686 43.1172C189.201 43.1172 188.836 42.9707 188.59 42.6777C188.344 42.3848 188.221 41.9688 188.221 41.4297V37.498H187.066V36.6602H188.221V35.125H189.305ZM194.391 43.1172C193.531 43.1172 192.832 42.8359 192.293 42.2734C191.754 41.707 191.484 40.9512 191.484 40.0059V39.8066C191.484 39.1777 191.604 38.6172 191.842 38.125C192.084 37.6289 192.42 37.2422 192.85 36.9648C193.283 36.6836 193.752 36.543 194.256 36.543C195.08 36.543 195.721 36.8145 196.178 37.3574C196.635 37.9004 196.863 38.6777 196.863 39.6895V40.1406H192.568C192.584 40.7656 192.766 41.2715 193.113 41.6582C193.465 42.041 193.91 42.2324 194.449 42.2324C194.832 42.2324 195.156 42.1543 195.422 41.998C195.688 41.8418 195.92 41.6348 196.119 41.377L196.781 41.8926C196.25 42.709 195.453 43.1172 194.391 43.1172ZM194.256 37.4336C193.818 37.4336 193.451 37.5938 193.154 37.9141C192.857 38.2305 192.674 38.6758 192.604 39.25H195.779V39.168C195.748 38.6172 195.6 38.1914 195.334 37.8906C195.068 37.5859 194.709 37.4336 194.256 37.4336ZM197.859 39.7773C197.859 38.8047 198.09 38.0234 198.551 37.4336C199.012 36.8398 199.615 36.543 200.361 36.543C201.104 36.543 201.691 36.7969 202.125 37.3047V34H203.209V43H202.213L202.16 42.3203C201.727 42.8516 201.123 43.1172 200.35 43.1172C199.615 43.1172 199.016 42.8164 198.551 42.2148C198.09 41.6133 197.859 40.8281 197.859 39.8594V39.7773ZM198.943 39.9004C198.943 40.6191 199.092 41.1816 199.389 41.5879C199.686 41.9941 200.096 42.1973 200.619 42.1973C201.307 42.1973 201.809 41.8887 202.125 41.2715V38.3594C201.801 37.7617 201.303 37.4629 200.631 37.4629C200.1 37.4629 199.686 37.668 199.389 38.0781C199.092 38.4883 198.943 39.0957 198.943 39.9004ZM208.406 43V37.498H207.404V36.6602H208.406V36.0098C208.406 35.3301 208.588 34.8047 208.951 34.4336C209.314 34.0625 209.828 33.877 210.492 33.877C210.742 33.877 210.99 33.9102 211.236 33.9766L211.178 34.8555C210.994 34.8203 210.799 34.8027 210.592 34.8027C210.24 34.8027 209.969 34.9062 209.777 35.1133C209.586 35.3164 209.49 35.6094 209.49 35.9922V36.6602H210.844V37.498H209.49V43H208.406ZM215.109 37.6328C214.945 37.6055 214.768 37.5918 214.576 37.5918C213.865 37.5918 213.383 37.8945 213.129 38.5V43H212.045V36.6602H213.1L213.117 37.3926C213.473 36.8262 213.977 36.543 214.629 36.543C214.84 36.543 215 36.5703 215.109 36.625V37.6328ZM215.707 39.7715C215.707 39.1504 215.828 38.5918 216.07 38.0957C216.316 37.5996 216.656 37.2168 217.09 36.9473C217.527 36.6777 218.025 36.543 218.584 36.543C219.447 36.543 220.145 36.8418 220.676 37.4395C221.211 38.0371 221.479 38.832 221.479 39.8242V39.9004C221.479 40.5176 221.359 41.0723 221.121 41.5645C220.887 42.0527 220.549 42.4336 220.107 42.707C219.67 42.9805 219.166 43.1172 218.596 43.1172C217.736 43.1172 217.039 42.8184 216.504 42.2207C215.973 41.623 215.707 40.832 215.707 39.8477V39.7715ZM216.797 39.9004C216.797 40.6035 216.959 41.168 217.283 41.5938C217.611 42.0195 218.049 42.2324 218.596 42.2324C219.146 42.2324 219.584 42.0176 219.908 41.5879C220.232 41.1543 220.395 40.5488 220.395 39.7715C220.395 39.0762 220.229 38.5137 219.896 38.084C219.568 37.6504 219.131 37.4336 218.584 37.4336C218.049 37.4336 217.617 37.6465 217.289 38.0723C216.961 38.498 216.797 39.1074 216.797 39.9004ZM223.857 36.6602L223.887 37.3633C224.352 36.8164 224.979 36.543 225.768 36.543C226.654 36.543 227.258 36.8828 227.578 37.5625C227.789 37.2578 228.062 37.0117 228.398 36.8242C228.738 36.6367 229.139 36.543 229.6 36.543C230.99 36.543 231.697 37.2793 231.721 38.752V43H230.637V38.8164C230.637 38.3633 230.533 38.0254 230.326 37.8027C230.119 37.5762 229.771 37.4629 229.283 37.4629C228.881 37.4629 228.547 37.584 228.281 37.8262C228.016 38.0645 227.861 38.3867 227.818 38.793V43H226.729V38.8457C226.729 37.9238 226.277 37.4629 225.375 37.4629C224.664 37.4629 224.178 37.7656 223.916 38.3711V43H222.832V36.6602H223.857ZM238.43 41.5293L240 36.6602H241.107L238.834 43H238.008L235.711 36.6602H236.818L238.43 41.5293ZM241.77 39.7715C241.77 39.1504 241.891 38.5918 242.133 38.0957C242.379 37.5996 242.719 37.2168 243.152 36.9473C243.59 36.6777 244.088 36.543 244.646 36.543C245.51 36.543 246.207 36.8418 246.738 37.4395C247.273 38.0371 247.541 38.832 247.541 39.8242V39.9004C247.541 40.5176 247.422 41.0723 247.184 41.5645C246.949 42.0527 246.611 42.4336 246.17 42.707C245.732 42.9805 245.229 43.1172 244.658 43.1172C243.799 43.1172 243.102 42.8184 242.566 42.2207C242.035 41.623 241.77 40.832 241.77 39.8477V39.7715ZM242.859 39.9004C242.859 40.6035 243.021 41.168 243.346 41.5938C243.674 42.0195 244.111 42.2324 244.658 42.2324C245.209 42.2324 245.646 42.0176 245.971 41.5879C246.295 41.1543 246.457 40.5488 246.457 39.7715C246.457 39.0762 246.291 38.5137 245.959 38.084C245.631 37.6504 245.193 37.4336 244.646 37.4336C244.111 37.4336 243.68 37.6465 243.352 38.0723C243.023 38.498 242.859 39.1074 242.859 39.9004ZM250.078 43H248.994V34H250.078V43ZM255.732 43C255.67 42.875 255.619 42.6523 255.58 42.332C255.076 42.8555 254.475 43.1172 253.775 43.1172C253.15 43.1172 252.637 42.9414 252.234 42.5898C251.836 42.2344 251.637 41.7852 251.637 41.2422C251.637 40.582 251.887 40.0703 252.387 39.707C252.891 39.3398 253.598 39.1562 254.508 39.1562H255.562V38.6582C255.562 38.2793 255.449 37.9785 255.223 37.7559C254.996 37.5293 254.662 37.416 254.221 37.416C253.834 37.416 253.51 37.5137 253.248 37.709C252.986 37.9043 252.855 38.1406 252.855 38.418H251.766C251.766 38.1016 251.877 37.7969 252.1 37.5039C252.326 37.207 252.631 36.9727 253.014 36.8008C253.4 36.6289 253.824 36.543 254.285 36.543C255.016 36.543 255.588 36.7266 256.002 37.0938C256.416 37.457 256.631 37.959 256.646 38.5996V41.5176C256.646 42.0996 256.721 42.5625 256.869 42.9062V43H255.732ZM253.934 42.1738C254.273 42.1738 254.596 42.0859 254.9 41.9102C255.205 41.7344 255.426 41.5059 255.562 41.2246V39.9238H254.713C253.385 39.9238 252.721 40.3125 252.721 41.0898C252.721 41.4297 252.834 41.6953 253.061 41.8867C253.287 42.0781 253.578 42.1738 253.934 42.1738ZM259.816 35.125V36.6602H261V37.498H259.816V41.4297C259.816 41.6836 259.869 41.875 259.975 42.0039C260.08 42.1289 260.26 42.1914 260.514 42.1914C260.639 42.1914 260.811 42.168 261.029 42.1211V43C260.744 43.0781 260.467 43.1172 260.197 43.1172C259.713 43.1172 259.348 42.9707 259.102 42.6777C258.855 42.3848 258.732 41.9688 258.732 41.4297V37.498H257.578V36.6602H258.732V35.125H259.816ZM263.449 43H262.365V36.6602H263.449V43ZM262.277 34.9785C262.277 34.8027 262.33 34.6543 262.436 34.5332C262.545 34.4121 262.705 34.3516 262.916 34.3516C263.127 34.3516 263.287 34.4121 263.396 34.5332C263.506 34.6543 263.561 34.8027 263.561 34.9785C263.561 35.1543 263.506 35.3008 263.396 35.418C263.287 35.5352 263.127 35.5938 262.916 35.5938C262.705 35.5938 262.545 35.5352 262.436 35.418C262.33 35.3008 262.277 35.1543 262.277 34.9785ZM266.367 43H265.283V34H266.367V43ZM269.285 43H268.201V36.6602H269.285V43ZM268.113 34.9785C268.113 34.8027 268.166 34.6543 268.271 34.5332C268.381 34.4121 268.541 34.3516 268.752 34.3516C268.963 34.3516 269.123 34.4121 269.232 34.5332C269.342 34.6543 269.396 34.8027 269.396 34.9785C269.396 35.1543 269.342 35.3008 269.232 35.418C269.123 35.5352 268.963 35.5938 268.752 35.5938C268.541 35.5938 268.381 35.5352 268.271 35.418C268.166 35.3008 268.113 35.1543 268.113 34.9785ZM272.496 35.125V36.6602H273.68V37.498H272.496V41.4297C272.496 41.6836 272.549 41.875 272.654 42.0039C272.76 42.1289 272.939 42.1914 273.193 42.1914C273.318 42.1914 273.49 42.168 273.709 42.1211V43C273.424 43.0781 273.146 43.1172 272.877 43.1172C272.393 43.1172 272.027 42.9707 271.781 42.6777C271.535 42.3848 271.412 41.9688 271.412 41.4297V37.498H270.258V36.6602H271.412V35.125H272.496ZM277.025 41.4121L278.502 36.6602H279.662L277.113 43.9785C276.719 45.0332 276.092 45.5605 275.232 45.5605L275.027 45.543L274.623 45.4668V44.5879L274.916 44.6113C275.283 44.6113 275.568 44.5371 275.771 44.3887C275.979 44.2402 276.148 43.9688 276.281 43.5742L276.521 42.9297L274.26 36.6602H275.443L277.025 41.4121ZM280.025 42.4316C280.025 42.2441 280.08 42.0879 280.189 41.9629C280.303 41.8379 280.471 41.7754 280.693 41.7754C280.916 41.7754 281.084 41.8379 281.197 41.9629C281.314 42.0879 281.373 42.2441 281.373 42.4316C281.373 42.6113 281.314 42.7617 281.197 42.8828C281.084 43.0039 280.916 43.0645 280.693 43.0645C280.471 43.0645 280.303 43.0039 280.189 42.8828C280.08 42.7617 280.025 42.6113 280.025 42.4316Z" fill="black"/>
<path d="M3.67969 258.197C2.71484 257.92 2.01172 257.58 1.57031 257.178C1.13281 256.771 0.914062 256.271 0.914062 255.678C0.914062 255.006 1.18164 254.451 1.7168 254.014C2.25586 253.572 2.95508 253.352 3.81445 253.352C4.40039 253.352 4.92188 253.465 5.37891 253.691C5.83984 253.918 6.19531 254.23 6.44531 254.629C6.69922 255.027 6.82617 255.463 6.82617 255.936H5.69531C5.69531 255.42 5.53125 255.016 5.20312 254.723C4.875 254.426 4.41211 254.277 3.81445 254.277C3.25977 254.277 2.82617 254.4 2.51367 254.646C2.20508 254.889 2.05078 255.227 2.05078 255.66C2.05078 256.008 2.19727 256.303 2.49023 256.545C2.78711 256.783 3.28906 257.002 3.99609 257.201C4.70703 257.4 5.26172 257.621 5.66016 257.863C6.0625 258.102 6.35938 258.381 6.55078 258.701C6.74609 259.021 6.84375 259.398 6.84375 259.832C6.84375 260.523 6.57422 261.078 6.03516 261.496C5.49609 261.91 4.77539 262.117 3.87305 262.117C3.28711 262.117 2.74023 262.006 2.23242 261.783C1.72461 261.557 1.33203 261.248 1.05469 260.857C0.78125 260.467 0.644531 260.023 0.644531 259.527H1.77539C1.77539 260.043 1.96484 260.451 2.34375 260.752C2.72656 261.049 3.23633 261.197 3.87305 261.197C4.4668 261.197 4.92188 261.076 5.23828 260.834C5.55469 260.592 5.71289 260.262 5.71289 259.844C5.71289 259.426 5.56641 259.104 5.27344 258.877C4.98047 258.646 4.44922 258.42 3.67969 258.197ZM7.83398 258.771C7.83398 258.15 7.95508 257.592 8.19727 257.096C8.44336 256.6 8.7832 256.217 9.2168 255.947C9.6543 255.678 10.1523 255.543 10.7109 255.543C11.5742 255.543 12.2715 255.842 12.8027 256.439C13.3379 257.037 13.6055 257.832 13.6055 258.824V258.9C13.6055 259.518 13.4863 260.072 13.248 260.564C13.0137 261.053 12.6758 261.434 12.2344 261.707C11.7969 261.98 11.293 262.117 10.7227 262.117C9.86328 262.117 9.16602 261.818 8.63086 261.221C8.09961 260.623 7.83398 259.832 7.83398 258.848V258.771ZM8.92383 258.9C8.92383 259.604 9.08594 260.168 9.41016 260.594C9.73828 261.02 10.1758 261.232 10.7227 261.232C11.2734 261.232 11.7109 261.018 12.0352 260.588C12.3594 260.154 12.5215 259.549 12.5215 258.771C12.5215 258.076 12.3555 257.514 12.0234 257.084C11.6953 256.65 11.2578 256.434 10.7109 256.434C10.1758 256.434 9.74414 256.646 9.41602 257.072C9.08789 257.498 8.92383 258.107 8.92383 258.9ZM15.9844 255.66L16.0137 256.363C16.4785 255.816 17.1055 255.543 17.8945 255.543C18.7812 255.543 19.3848 255.883 19.7051 256.562C19.916 256.258 20.1895 256.012 20.5254 255.824C20.8652 255.637 21.2656 255.543 21.7266 255.543C23.1172 255.543 23.8242 256.279 23.8477 257.752V262H22.7637V257.816C22.7637 257.363 22.6602 257.025 22.4531 256.803C22.2461 256.576 21.8984 256.463 21.4102 256.463C21.0078 256.463 20.6738 256.584 20.4082 256.826C20.1426 257.064 19.9883 257.387 19.9453 257.793V262H18.8555V257.846C18.8555 256.924 18.4043 256.463 17.502 256.463C16.791 256.463 16.3047 256.766 16.043 257.371V262H14.959V255.66H15.9844ZM28.1191 262.117C27.2598 262.117 26.5605 261.836 26.0215 261.273C25.4824 260.707 25.2129 259.951 25.2129 259.006V258.807C25.2129 258.178 25.332 257.617 25.5703 257.125C25.8125 256.629 26.1484 256.242 26.5781 255.965C27.0117 255.684 27.4805 255.543 27.9844 255.543C28.8086 255.543 29.4492 255.814 29.9062 256.357C30.3633 256.9 30.5918 257.678 30.5918 258.689V259.141H26.2969C26.3125 259.766 26.4941 260.271 26.8418 260.658C27.1934 261.041 27.6387 261.232 28.1777 261.232C28.5605 261.232 28.8848 261.154 29.1504 260.998C29.416 260.842 29.6484 260.635 29.8477 260.377L30.5098 260.893C29.9785 261.709 29.1816 262.117 28.1191 262.117ZM27.9844 256.434C27.5469 256.434 27.1797 256.594 26.8828 256.914C26.5859 257.23 26.4023 257.676 26.332 258.25H29.5078V258.168C29.4766 257.617 29.3281 257.191 29.0625 256.891C28.7969 256.586 28.4375 256.434 27.9844 256.434ZM35.8477 255.66L35.877 256.363C36.3418 255.816 36.9688 255.543 37.7578 255.543C38.6445 255.543 39.248 255.883 39.5684 256.562C39.7793 256.258 40.0527 256.012 40.3887 255.824C40.7285 255.637 41.1289 255.543 41.5898 255.543C42.9805 255.543 43.6875 256.279 43.7109 257.752V262H42.627V257.816C42.627 257.363 42.5234 257.025 42.3164 256.803C42.1094 256.576 41.7617 256.463 41.2734 256.463C40.8711 256.463 40.5371 256.584 40.2715 256.826C40.0059 257.064 39.8516 257.387 39.8086 257.793V262H38.7188V257.846C38.7188 256.924 38.2676 256.463 37.3652 256.463C36.6543 256.463 36.168 256.766 35.9062 257.371V262H34.8223V255.66H35.8477ZM45.0645 258.771C45.0645 258.15 45.1855 257.592 45.4277 257.096C45.6738 256.6 46.0137 256.217 46.4473 255.947C46.8848 255.678 47.3828 255.543 47.9414 255.543C48.8047 255.543 49.502 255.842 50.0332 256.439C50.5684 257.037 50.8359 257.832 50.8359 258.824V258.9C50.8359 259.518 50.7168 260.072 50.4785 260.564C50.2441 261.053 49.9062 261.434 49.4648 261.707C49.0273 261.98 48.5234 262.117 47.9531 262.117C47.0938 262.117 46.3965 261.818 45.8613 261.221C45.3301 260.623 45.0645 259.832 45.0645 258.848V258.771ZM46.1543 258.9C46.1543 259.604 46.3164 260.168 46.6406 260.594C46.9688 261.02 47.4062 261.232 47.9531 261.232C48.5039 261.232 48.9414 261.018 49.2656 260.588C49.5898 260.154 49.752 259.549 49.752 258.771C49.752 258.076 49.5859 257.514 49.2539 257.084C48.9258 256.65 48.4883 256.434 47.9414 256.434C47.4062 256.434 46.9746 256.646 46.6465 257.072C46.3184 257.498 46.1543 258.107 46.1543 258.9ZM54.1934 260.529L55.7637 255.66H56.8711L54.5977 262H53.7715L51.4746 255.66H52.582L54.1934 260.529ZM60.4629 262.117C59.6035 262.117 58.9043 261.836 58.3652 261.273C57.8262 260.707 57.5566 259.951 57.5566 259.006V258.807C57.5566 258.178 57.6758 257.617 57.9141 257.125C58.1562 256.629 58.4922 256.242 58.9219 255.965C59.3555 255.684 59.8242 255.543 60.3281 255.543C61.1523 255.543 61.793 255.814 62.25 256.357C62.707 256.9 62.9355 257.678 62.9355 258.689V259.141H58.6406C58.6562 259.766 58.8379 260.271 59.1855 260.658C59.5371 261.041 59.9824 261.232 60.5215 261.232C60.9043 261.232 61.2285 261.154 61.4941 260.998C61.7598 260.842 61.9922 260.635 62.1914 260.377L62.8535 260.893C62.3223 261.709 61.5254 262.117 60.4629 262.117ZM60.3281 256.434C59.8906 256.434 59.5234 256.594 59.2266 256.914C58.9297 257.23 58.7461 257.676 58.6758 258.25H61.8516V258.168C61.8203 257.617 61.6719 257.191 61.4062 256.891C61.1406 256.586 60.7812 256.434 60.3281 256.434ZM65.2148 255.66L65.2441 256.363C65.709 255.816 66.3359 255.543 67.125 255.543C68.0117 255.543 68.6152 255.883 68.9355 256.562C69.1465 256.258 69.4199 256.012 69.7559 255.824C70.0957 255.637 70.4961 255.543 70.957 255.543C72.3477 255.543 73.0547 256.279 73.0781 257.752V262H71.9941V257.816C71.9941 257.363 71.8906 257.025 71.6836 256.803C71.4766 256.576 71.1289 256.463 70.6406 256.463C70.2383 256.463 69.9043 256.584 69.6387 256.826C69.373 257.064 69.2188 257.387 69.1758 257.793V262H68.0859V257.846C68.0859 256.924 67.6348 256.463 66.7324 256.463C66.0215 256.463 65.5352 256.766 65.2734 257.371V262H64.1895V255.66H65.2148ZM77.3496 262.117C76.4902 262.117 75.791 261.836 75.252 261.273C74.7129 260.707 74.4434 259.951 74.4434 259.006V258.807C74.4434 258.178 74.5625 257.617 74.8008 257.125C75.043 256.629 75.3789 256.242 75.8086 255.965C76.2422 255.684 76.7109 255.543 77.2148 255.543C78.0391 255.543 78.6797 255.814 79.1367 256.357C79.5938 256.9 79.8223 257.678 79.8223 258.689V259.141H75.5273C75.543 259.766 75.7246 260.271 76.0723 260.658C76.4238 261.041 76.8691 261.232 77.4082 261.232C77.791 261.232 78.1152 261.154 78.3809 260.998C78.6465 260.842 78.8789 260.635 79.0781 260.377L79.7402 260.893C79.209 261.709 78.4121 262.117 77.3496 262.117ZM77.2148 256.434C76.7773 256.434 76.4102 256.594 76.1133 256.914C75.8164 257.23 75.6328 257.676 75.5625 258.25H78.7383V258.168C78.707 257.617 78.5586 257.191 78.293 256.891C78.0273 256.586 77.668 256.434 77.2148 256.434ZM82.1074 255.66L82.1426 256.457C82.627 255.848 83.2598 255.543 84.041 255.543C85.3809 255.543 86.0566 256.299 86.0684 257.811V262H84.9844V257.805C84.9805 257.348 84.875 257.01 84.668 256.791C84.4648 256.572 84.1465 256.463 83.7129 256.463C83.3613 256.463 83.0527 256.557 82.7871 256.744C82.5215 256.932 82.3145 257.178 82.166 257.482V262H81.082V255.66H82.1074ZM89.1738 254.125V255.66H90.3574V256.498H89.1738V260.43C89.1738 260.684 89.2266 260.875 89.332 261.004C89.4375 261.129 89.6172 261.191 89.8711 261.191C89.9961 261.191 90.168 261.168 90.3867 261.121V262C90.1016 262.078 89.8242 262.117 89.5547 262.117C89.0703 262.117 88.7051 261.971 88.459 261.678C88.2129 261.385 88.0898 260.969 88.0898 260.43V256.498H86.9355V255.66H88.0898V254.125H89.1738ZM95.3203 260.318C95.3203 260.025 95.209 259.799 94.9863 259.639C94.7676 259.475 94.3828 259.334 93.832 259.217C93.2852 259.1 92.8496 258.959 92.5254 258.795C92.2051 258.631 91.9668 258.436 91.8105 258.209C91.6582 257.982 91.582 257.713 91.582 257.4C91.582 256.881 91.8008 256.441 92.2383 256.082C92.6797 255.723 93.2422 255.543 93.9258 255.543C94.6445 255.543 95.2266 255.729 95.6719 256.1C96.1211 256.471 96.3457 256.945 96.3457 257.523H95.2559C95.2559 257.227 95.1289 256.971 94.875 256.756C94.625 256.541 94.3086 256.434 93.9258 256.434C93.5312 256.434 93.2227 256.52 93 256.691C92.7773 256.863 92.666 257.088 92.666 257.365C92.666 257.627 92.7695 257.824 92.9766 257.957C93.1836 258.09 93.5566 258.217 94.0957 258.338C94.6387 258.459 95.0781 258.604 95.4141 258.771C95.75 258.939 95.998 259.143 96.1582 259.381C96.3223 259.615 96.4043 259.902 96.4043 260.242C96.4043 260.809 96.1777 261.264 95.7246 261.607C95.2715 261.947 94.6836 262.117 93.9609 262.117C93.4531 262.117 93.0039 262.027 92.6133 261.848C92.2227 261.668 91.916 261.418 91.6934 261.098C91.4746 260.773 91.3652 260.424 91.3652 260.049H92.4492C92.4688 260.412 92.6133 260.701 92.8828 260.916C93.1562 261.127 93.5156 261.232 93.9609 261.232C94.3711 261.232 94.6992 261.15 94.9453 260.986C95.1953 260.818 95.3203 260.596 95.3203 260.318ZM104.707 262C104.645 261.875 104.594 261.652 104.555 261.332C104.051 261.855 103.449 262.117 102.75 262.117C102.125 262.117 101.611 261.941 101.209 261.59C100.811 261.234 100.611 260.785 100.611 260.242C100.611 259.582 100.861 259.07 101.361 258.707C101.865 258.34 102.572 258.156 103.482 258.156H104.537V257.658C104.537 257.279 104.424 256.979 104.197 256.756C103.971 256.529 103.637 256.416 103.195 256.416C102.809 256.416 102.484 256.514 102.223 256.709C101.961 256.904 101.83 257.141 101.83 257.418H100.74C100.74 257.102 100.852 256.797 101.074 256.504C101.301 256.207 101.605 255.973 101.988 255.801C102.375 255.629 102.799 255.543 103.26 255.543C103.99 255.543 104.562 255.727 104.977 256.094C105.391 256.457 105.605 256.959 105.621 257.6V260.518C105.621 261.1 105.695 261.562 105.844 261.906V262H104.707ZM102.908 261.174C103.248 261.174 103.57 261.086 103.875 260.91C104.18 260.734 104.4 260.506 104.537 260.225V258.924H103.688C102.359 258.924 101.695 259.312 101.695 260.09C101.695 260.43 101.809 260.695 102.035 260.887C102.262 261.078 102.553 261.174 102.908 261.174ZM110.385 256.633C110.221 256.605 110.043 256.592 109.852 256.592C109.141 256.592 108.658 256.895 108.404 257.5V262H107.32V255.66H108.375L108.393 256.393C108.748 255.826 109.252 255.543 109.904 255.543C110.115 255.543 110.275 255.57 110.385 255.625V256.633ZM113.9 262.117C113.041 262.117 112.342 261.836 111.803 261.273C111.264 260.707 110.994 259.951 110.994 259.006V258.807C110.994 258.178 111.113 257.617 111.352 257.125C111.594 256.629 111.93 256.242 112.359 255.965C112.793 255.684 113.262 255.543 113.766 255.543C114.59 255.543 115.23 255.814 115.688 256.357C116.145 256.9 116.373 257.678 116.373 258.689V259.141H112.078C112.094 259.766 112.275 260.271 112.623 260.658C112.975 261.041 113.42 261.232 113.959 261.232C114.342 261.232 114.666 261.154 114.932 260.998C115.197 260.842 115.43 260.635 115.629 260.377L116.291 260.893C115.76 261.709 114.963 262.117 113.9 262.117ZM113.766 256.434C113.328 256.434 112.961 256.594 112.664 256.914C112.367 257.23 112.184 257.676 112.113 258.25H115.289V258.168C115.258 257.617 115.109 257.191 114.844 256.891C114.578 256.586 114.219 256.434 113.766 256.434ZM121.629 255.66L121.658 256.363C122.123 255.816 122.75 255.543 123.539 255.543C124.426 255.543 125.029 255.883 125.35 256.562C125.561 256.258 125.834 256.012 126.17 255.824C126.51 255.637 126.91 255.543 127.371 255.543C128.762 255.543 129.469 256.279 129.492 257.752V262H128.408V257.816C128.408 257.363 128.305 257.025 128.098 256.803C127.891 256.576 127.543 256.463 127.055 256.463C126.652 256.463 126.318 256.584 126.053 256.826C125.787 257.064 125.633 257.387 125.59 257.793V262H124.5V257.846C124.5 256.924 124.049 256.463 123.146 256.463C122.436 256.463 121.949 256.766 121.688 257.371V262H120.604V255.66H121.629ZM135.047 261.373C134.625 261.869 134.006 262.117 133.189 262.117C132.514 262.117 131.998 261.922 131.643 261.531C131.291 261.137 131.113 260.555 131.109 259.785V255.66H132.193V259.756C132.193 260.717 132.584 261.197 133.365 261.197C134.193 261.197 134.744 260.889 135.018 260.271V255.66H136.102V262H135.07L135.047 261.373ZM140.297 261.232C140.684 261.232 141.021 261.115 141.311 260.881C141.6 260.646 141.76 260.354 141.791 260.002H142.816C142.797 260.365 142.672 260.711 142.441 261.039C142.211 261.367 141.902 261.629 141.516 261.824C141.133 262.02 140.727 262.117 140.297 262.117C139.434 262.117 138.746 261.83 138.234 261.256C137.727 260.678 137.473 259.889 137.473 258.889V258.707C137.473 258.09 137.586 257.541 137.812 257.061C138.039 256.58 138.363 256.207 138.785 255.941C139.211 255.676 139.713 255.543 140.291 255.543C141.002 255.543 141.592 255.756 142.061 256.182C142.533 256.607 142.785 257.16 142.816 257.84H141.791C141.76 257.43 141.604 257.094 141.322 256.832C141.045 256.566 140.701 256.434 140.291 256.434C139.74 256.434 139.312 256.633 139.008 257.031C138.707 257.426 138.557 257.998 138.557 258.748V258.953C138.557 259.684 138.707 260.246 139.008 260.641C139.309 261.035 139.738 261.232 140.297 261.232ZM145.119 256.428C145.6 255.838 146.225 255.543 146.994 255.543C148.334 255.543 149.01 256.299 149.021 257.811V262H147.938V257.805C147.934 257.348 147.828 257.01 147.621 256.791C147.418 256.572 147.1 256.463 146.666 256.463C146.314 256.463 146.006 256.557 145.74 256.744C145.475 256.932 145.268 257.178 145.119 257.482V262H144.035V253H145.119V256.428ZM20.8477 276H19.1484V267H20.8477V276ZM25.9219 276C25.8438 275.848 25.7871 275.658 25.752 275.432C25.3418 275.889 24.8086 276.117 24.1523 276.117C23.5312 276.117 23.0156 275.938 22.6055 275.578C22.1992 275.219 21.9961 274.766 21.9961 274.219C21.9961 273.547 22.2441 273.031 22.7402 272.672C23.2402 272.312 23.9609 272.131 24.9023 272.127H25.6816V271.764C25.6816 271.471 25.6055 271.236 25.4531 271.061C25.3047 270.885 25.0684 270.797 24.7441 270.797C24.459 270.797 24.2344 270.865 24.0703 271.002C23.9102 271.139 23.8301 271.326 23.8301 271.564H22.1367C22.1367 271.197 22.25 270.857 22.4766 270.545C22.7031 270.232 23.0234 269.988 23.4375 269.812C23.8516 269.633 24.3164 269.543 24.832 269.543C25.6133 269.543 26.2324 269.74 26.6895 270.135C27.1504 270.525 27.3809 271.076 27.3809 271.787V274.535C27.3848 275.137 27.4688 275.592 27.6328 275.9V276H25.9219ZM24.5215 274.822C24.7715 274.822 25.002 274.768 25.2129 274.658C25.4238 274.545 25.5801 274.395 25.6816 274.207V273.117H25.0488C24.2012 273.117 23.75 273.41 23.6953 273.996L23.6895 274.096C23.6895 274.307 23.7637 274.48 23.9121 274.617C24.0605 274.754 24.2637 274.822 24.5215 274.822ZM32.2441 271.248C32.0137 271.217 31.8105 271.201 31.6348 271.201C30.9941 271.201 30.5742 271.418 30.375 271.852V276H28.6816V269.66H30.2812L30.3281 270.416C30.668 269.834 31.1387 269.543 31.7402 269.543C31.9277 269.543 32.1035 269.568 32.2676 269.619L32.2441 271.248ZM32.7012 272.783C32.7012 271.811 32.9316 271.027 33.3926 270.434C33.8574 269.84 34.4824 269.543 35.2676 269.543C35.9629 269.543 36.5039 269.781 36.8906 270.258L36.9609 269.66H38.4961V275.789C38.4961 276.344 38.3691 276.826 38.1152 277.236C37.8652 277.646 37.5117 277.959 37.0547 278.174C36.5977 278.389 36.0625 278.496 35.4492 278.496C34.9844 278.496 34.5312 278.402 34.0898 278.215C33.6484 278.031 33.3145 277.793 33.0879 277.5L33.8379 276.469C34.2598 276.941 34.7715 277.178 35.373 277.178C35.8223 277.178 36.1719 277.057 36.4219 276.814C36.6719 276.576 36.7969 276.236 36.7969 275.795V275.455C36.4062 275.896 35.8926 276.117 35.2559 276.117C34.4941 276.117 33.877 275.82 33.4043 275.227C32.9355 274.629 32.7012 273.838 32.7012 272.854V272.783ZM34.3945 272.906C34.3945 273.48 34.5098 273.932 34.7402 274.26C34.9707 274.584 35.2871 274.746 35.6895 274.746C36.2051 274.746 36.5742 274.553 36.7969 274.166V271.5C36.5703 271.113 36.2051 270.92 35.7012 270.92C35.2949 270.92 34.9746 271.086 34.7402 271.418C34.5098 271.75 34.3945 272.246 34.3945 272.906ZM42.7207 276.117C41.791 276.117 41.0332 275.832 40.4473 275.262C39.8652 274.691 39.5742 273.932 39.5742 272.982V272.818C39.5742 272.182 39.6973 271.613 39.9434 271.113C40.1895 270.609 40.5371 270.223 40.9863 269.953C41.4395 269.68 41.9551 269.543 42.5332 269.543C43.4004 269.543 44.082 269.816 44.5781 270.363C45.0781 270.91 45.3281 271.686 45.3281 272.689V273.381H41.291C41.3457 273.795 41.5098 274.127 41.7832 274.377C42.0605 274.627 42.4102 274.752 42.832 274.752C43.4844 274.752 43.9941 274.516 44.3613 274.043L45.1934 274.975C44.9395 275.334 44.5957 275.615 44.1621 275.818C43.7285 276.018 43.248 276.117 42.7207 276.117ZM42.5273 270.914C42.1914 270.914 41.918 271.027 41.707 271.254C41.5 271.48 41.3672 271.805 41.3086 272.227H43.6641V272.092C43.6562 271.717 43.5547 271.428 43.3594 271.225C43.1641 271.018 42.8867 270.914 42.5273 270.914ZM49.8574 271.248C49.627 271.217 49.4238 271.201 49.248 271.201C48.6074 271.201 48.1875 271.418 47.9883 271.852V276H46.2949V269.66H47.8945L47.9414 270.416C48.2812 269.834 48.752 269.543 49.3535 269.543C49.541 269.543 49.7168 269.568 49.8809 269.619L49.8574 271.248ZM55.2949 268.125V269.66H56.4785V270.498H55.2949V274.43C55.2949 274.684 55.3477 274.875 55.4531 275.004C55.5586 275.129 55.7383 275.191 55.9922 275.191C56.1172 275.191 56.2891 275.168 56.5078 275.121V276C56.2227 276.078 55.9453 276.117 55.6758 276.117C55.1914 276.117 54.8262 275.971 54.5801 275.678C54.334 275.385 54.2109 274.969 54.2109 274.43V270.498H53.0566V269.66H54.2109V268.125H55.2949ZM58.834 270.428C59.3145 269.838 59.9395 269.543 60.709 269.543C62.0488 269.543 62.7246 270.299 62.7363 271.811V276H61.6523V271.805C61.6484 271.348 61.543 271.01 61.3359 270.791C61.1328 270.572 60.8145 270.463 60.3809 270.463C60.0293 270.463 59.7207 270.557 59.4551 270.744C59.1895 270.932 58.9824 271.178 58.834 271.482V276H57.75V267H58.834V270.428ZM68.2734 276C68.2109 275.875 68.1602 275.652 68.1211 275.332C67.6172 275.855 67.0156 276.117 66.3164 276.117C65.6914 276.117 65.1777 275.941 64.7754 275.59C64.377 275.234 64.1777 274.785 64.1777 274.242C64.1777 273.582 64.4277 273.07 64.9277 272.707C65.4316 272.34 66.1387 272.156 67.0488 272.156H68.1035V271.658C68.1035 271.279 67.9902 270.979 67.7637 270.756C67.5371 270.529 67.2031 270.416 66.7617 270.416C66.375 270.416 66.0508 270.514 65.7891 270.709C65.5273 270.904 65.3965 271.141 65.3965 271.418H64.3066C64.3066 271.102 64.418 270.797 64.6406 270.504C64.8672 270.207 65.1719 269.973 65.5547 269.801C65.9414 269.629 66.3652 269.543 66.8262 269.543C67.5566 269.543 68.1289 269.727 68.543 270.094C68.957 270.457 69.1719 270.959 69.1875 271.6V274.518C69.1875 275.1 69.2617 275.562 69.4102 275.906V276H68.2734ZM66.4746 275.174C66.8145 275.174 67.1367 275.086 67.4414 274.91C67.7461 274.734 67.9668 274.506 68.1035 274.225V272.924H67.2539C65.9258 272.924 65.2617 273.312 65.2617 274.09C65.2617 274.43 65.375 274.695 65.6016 274.887C65.8281 275.078 66.1191 275.174 66.4746 275.174ZM71.9121 269.66L71.9473 270.457C72.4316 269.848 73.0645 269.543 73.8457 269.543C75.1855 269.543 75.8613 270.299 75.873 271.811V276H74.7891V271.805C74.7852 271.348 74.6797 271.01 74.4727 270.791C74.2695 270.572 73.9512 270.463 73.5176 270.463C73.166 270.463 72.8574 270.557 72.5918 270.744C72.3262 270.932 72.1191 271.178 71.9707 271.482V276H70.8867V269.66H71.9121ZM83.1152 276.117C82.2559 276.117 81.5566 275.836 81.0176 275.273C80.4785 274.707 80.209 273.951 80.209 273.006V272.807C80.209 272.178 80.3281 271.617 80.5664 271.125C80.8086 270.629 81.1445 270.242 81.5742 269.965C82.0078 269.684 82.4766 269.543 82.9805 269.543C83.8047 269.543 84.4453 269.814 84.9023 270.357C85.3594 270.9 85.5879 271.678 85.5879 272.689V273.141H81.293C81.3086 273.766 81.4902 274.271 81.8379 274.658C82.1895 275.041 82.6348 275.232 83.1738 275.232C83.5566 275.232 83.8809 275.154 84.1465 274.998C84.4121 274.842 84.6445 274.635 84.8438 274.377L85.5059 274.893C84.9746 275.709 84.1777 276.117 83.1152 276.117ZM82.9805 270.434C82.543 270.434 82.1758 270.594 81.8789 270.914C81.582 271.23 81.3984 271.676 81.3281 272.25H84.5039V272.168C84.4727 271.617 84.3242 271.191 84.0586 270.891C83.793 270.586 83.4336 270.434 82.9805 270.434ZM88.9746 271.975L90.3809 269.66H91.6465L89.5723 272.795L91.7109 276H90.457L88.9922 273.627L87.5273 276H86.2676L88.4062 272.795L86.332 269.66H87.5859L88.9746 271.975ZM98.1562 272.9C98.1562 273.865 97.9355 274.643 97.4941 275.232C97.0527 275.822 96.4551 276.117 95.7012 276.117C94.9316 276.117 94.3262 275.873 93.8848 275.385V278.438H92.8008V269.66H93.791L93.8438 270.363C94.2852 269.816 94.8984 269.543 95.6836 269.543C96.4453 269.543 97.0469 269.83 97.4883 270.404C97.9336 270.979 98.1562 271.777 98.1562 272.801V272.9ZM97.0723 272.777C97.0723 272.062 96.9199 271.498 96.6152 271.084C96.3105 270.67 95.8926 270.463 95.3613 270.463C94.7051 270.463 94.2129 270.754 93.8848 271.336V274.365C94.209 274.943 94.7051 275.232 95.373 275.232C95.8926 275.232 96.3047 275.027 96.6094 274.617C96.918 274.203 97.0723 273.59 97.0723 272.777ZM102.17 276.117C101.311 276.117 100.611 275.836 100.072 275.273C99.5332 274.707 99.2637 273.951 99.2637 273.006V272.807C99.2637 272.178 99.3828 271.617 99.6211 271.125C99.8633 270.629 100.199 270.242 100.629 269.965C101.062 269.684 101.531 269.543 102.035 269.543C102.859 269.543 103.5 269.814 103.957 270.357C104.414 270.9 104.643 271.678 104.643 272.689V273.141H100.348C100.363 273.766 100.545 274.271 100.893 274.658C101.244 275.041 101.689 275.232 102.229 275.232C102.611 275.232 102.936 275.154 103.201 274.998C103.467 274.842 103.699 274.635 103.898 274.377L104.561 274.893C104.029 275.709 103.232 276.117 102.17 276.117ZM102.035 270.434C101.598 270.434 101.23 270.594 100.934 270.914C100.637 271.23 100.453 271.676 100.383 272.25H103.559V272.168C103.527 271.617 103.379 271.191 103.113 270.891C102.848 270.586 102.488 270.434 102.035 270.434ZM108.445 275.232C108.832 275.232 109.17 275.115 109.459 274.881C109.748 274.646 109.908 274.354 109.939 274.002H110.965C110.945 274.365 110.82 274.711 110.59 275.039C110.359 275.367 110.051 275.629 109.664 275.824C109.281 276.02 108.875 276.117 108.445 276.117C107.582 276.117 106.895 275.83 106.383 275.256C105.875 274.678 105.621 273.889 105.621 272.889V272.707C105.621 272.09 105.734 271.541 105.961 271.061C106.188 270.58 106.512 270.207 106.934 269.941C107.359 269.676 107.861 269.543 108.439 269.543C109.15 269.543 109.74 269.756 110.209 270.182C110.682 270.607 110.934 271.16 110.965 271.84H109.939C109.908 271.43 109.752 271.094 109.471 270.832C109.193 270.566 108.85 270.434 108.439 270.434C107.889 270.434 107.461 270.633 107.156 271.031C106.855 271.426 106.705 271.998 106.705 272.748V272.953C106.705 273.684 106.855 274.246 107.156 274.641C107.457 275.035 107.887 275.232 108.445 275.232ZM113.654 268.125V269.66H114.838V270.498H113.654V274.43C113.654 274.684 113.707 274.875 113.812 275.004C113.918 275.129 114.098 275.191 114.352 275.191C114.477 275.191 114.648 275.168 114.867 275.121V276C114.582 276.078 114.305 276.117 114.035 276.117C113.551 276.117 113.186 275.971 112.939 275.678C112.693 275.385 112.57 274.969 112.57 274.43V270.498H111.416V269.66H112.57V268.125H113.654ZM118.74 276.117C117.881 276.117 117.182 275.836 116.643 275.273C116.104 274.707 115.834 273.951 115.834 273.006V272.807C115.834 272.178 115.953 271.617 116.191 271.125C116.434 270.629 116.77 270.242 117.199 269.965C117.633 269.684 118.102 269.543 118.605 269.543C119.43 269.543 120.07 269.814 120.527 270.357C120.984 270.9 121.213 271.678 121.213 272.689V273.141H116.918C116.934 273.766 117.115 274.271 117.463 274.658C117.814 275.041 118.26 275.232 118.799 275.232C119.182 275.232 119.506 275.154 119.771 274.998C120.037 274.842 120.27 274.635 120.469 274.377L121.131 274.893C120.6 275.709 119.803 276.117 118.74 276.117ZM118.605 270.434C118.168 270.434 117.801 270.594 117.504 270.914C117.207 271.23 117.023 271.676 116.953 272.25H120.129V272.168C120.098 271.617 119.949 271.191 119.684 270.891C119.418 270.586 119.059 270.434 118.605 270.434ZM122.209 272.777C122.209 271.805 122.439 271.023 122.9 270.434C123.361 269.84 123.965 269.543 124.711 269.543C125.453 269.543 126.041 269.797 126.475 270.305V267H127.559V276H126.562L126.51 275.32C126.076 275.852 125.473 276.117 124.699 276.117C123.965 276.117 123.365 275.816 122.9 275.215C122.439 274.613 122.209 273.828 122.209 272.859V272.777ZM123.293 272.9C123.293 273.619 123.441 274.182 123.738 274.588C124.035 274.994 124.445 275.197 124.969 275.197C125.656 275.197 126.158 274.889 126.475 274.271V271.359C126.15 270.762 125.652 270.463 124.98 270.463C124.449 270.463 124.035 270.668 123.738 271.078C123.441 271.488 123.293 272.096 123.293 272.9ZM129.27 275.432C129.27 275.244 129.324 275.088 129.434 274.963C129.547 274.838 129.715 274.775 129.938 274.775C130.16 274.775 130.328 274.838 130.441 274.963C130.559 275.088 130.617 275.244 130.617 275.432C130.617 275.611 130.559 275.762 130.441 275.883C130.328 276.004 130.16 276.064 129.938 276.064C129.715 276.064 129.547 276.004 129.434 275.883C129.324 275.762 129.27 275.611 129.27 275.432Z" fill="black"/>
<path d="M370.646 109.646C370.451 109.842 370.451 110.158 370.646 110.354L373.828 113.536C374.024 113.731 374.34 113.731 374.536 113.536C374.731 113.34 374.731 113.024 374.536 112.828L371.707 110L374.536 107.172C374.731 106.976 374.731 106.66 374.536 106.464C374.34 106.269 374.024 106.269 373.828 106.464L370.646 109.646ZM384 109.5H371V110.5H384V109.5Z" fill="black"/>
<path d="M388.99 114V105.469H391.779C392.705 105.469 393.4 105.66 393.865 106.043C394.334 106.426 394.568 106.992 394.568 107.742C394.568 108.141 394.455 108.494 394.229 108.803C394.002 109.107 393.693 109.344 393.303 109.512C393.764 109.641 394.127 109.887 394.393 110.25C394.662 110.609 394.797 111.039 394.797 111.539C394.797 112.305 394.549 112.906 394.053 113.344C393.557 113.781 392.855 114 391.949 114H388.99ZM390.115 110.01V113.08H391.973C392.496 113.08 392.908 112.945 393.209 112.676C393.514 112.402 393.666 112.027 393.666 111.551C393.666 110.523 393.107 110.01 391.99 110.01H390.115ZM390.115 109.107H391.814C392.307 109.107 392.699 108.984 392.992 108.738C393.289 108.492 393.438 108.158 393.438 107.736C393.438 107.268 393.301 106.928 393.027 106.717C392.754 106.502 392.338 106.395 391.779 106.395H390.115V109.107ZM397.475 114H396.391V105H397.475V114ZM403.129 114C403.066 113.875 403.016 113.652 402.977 113.332C402.473 113.855 401.871 114.117 401.172 114.117C400.547 114.117 400.033 113.941 399.631 113.59C399.232 113.234 399.033 112.785 399.033 112.242C399.033 111.582 399.283 111.07 399.783 110.707C400.287 110.34 400.994 110.156 401.904 110.156H402.959V109.658C402.959 109.279 402.846 108.979 402.619 108.756C402.393 108.529 402.059 108.416 401.617 108.416C401.23 108.416 400.906 108.514 400.645 108.709C400.383 108.904 400.252 109.141 400.252 109.418H399.162C399.162 109.102 399.273 108.797 399.496 108.504C399.723 108.207 400.027 107.973 400.41 107.801C400.797 107.629 401.221 107.543 401.682 107.543C402.412 107.543 402.984 107.727 403.398 108.094C403.812 108.457 404.027 108.959 404.043 109.6V112.518C404.043 113.1 404.117 113.562 404.266 113.906V114H403.129ZM401.33 113.174C401.67 113.174 401.992 113.086 402.297 112.91C402.602 112.734 402.822 112.506 402.959 112.225V110.924H402.109C400.781 110.924 400.117 111.312 400.117 112.09C400.117 112.43 400.23 112.695 400.457 112.887C400.684 113.078 400.975 113.174 401.33 113.174ZM408.285 113.232C408.672 113.232 409.01 113.115 409.299 112.881C409.588 112.646 409.748 112.354 409.779 112.002H410.805C410.785 112.365 410.66 112.711 410.43 113.039C410.199 113.367 409.891 113.629 409.504 113.824C409.121 114.02 408.715 114.117 408.285 114.117C407.422 114.117 406.734 113.83 406.223 113.256C405.715 112.678 405.461 111.889 405.461 110.889V110.707C405.461 110.09 405.574 109.541 405.801 109.061C406.027 108.58 406.352 108.207 406.773 107.941C407.199 107.676 407.701 107.543 408.279 107.543C408.99 107.543 409.58 107.756 410.049 108.182C410.521 108.607 410.773 109.16 410.805 109.84H409.779C409.748 109.43 409.592 109.094 409.311 108.832C409.033 108.566 408.689 108.434 408.279 108.434C407.729 108.434 407.301 108.633 406.996 109.031C406.695 109.426 406.545 109.998 406.545 110.748V110.953C406.545 111.684 406.695 112.246 406.996 112.641C407.297 113.035 407.727 113.232 408.285 113.232ZM413.793 111.064L413.113 111.773V114H412.029V105H413.113V110.443L413.693 109.746L415.668 107.66H416.986L414.52 110.309L417.273 114H416.002L413.793 111.064ZM420.361 110.818H417.502V109.934H420.361V110.818ZM424.105 110.197C423.141 109.92 422.438 109.58 421.996 109.178C421.559 108.771 421.34 108.271 421.34 107.678C421.34 107.006 421.607 106.451 422.143 106.014C422.682 105.572 423.381 105.352 424.24 105.352C424.826 105.352 425.348 105.465 425.805 105.691C426.266 105.918 426.621 106.23 426.871 106.629C427.125 107.027 427.252 107.463 427.252 107.936H426.121C426.121 107.42 425.957 107.016 425.629 106.723C425.301 106.426 424.838 106.277 424.24 106.277C423.686 106.277 423.252 106.4 422.939 106.646C422.631 106.889 422.477 107.227 422.477 107.66C422.477 108.008 422.623 108.303 422.916 108.545C423.213 108.783 423.715 109.002 424.422 109.201C425.133 109.4 425.688 109.621 426.086 109.863C426.488 110.102 426.785 110.381 426.977 110.701C427.172 111.021 427.27 111.398 427.27 111.832C427.27 112.523 427 113.078 426.461 113.496C425.922 113.91 425.201 114.117 424.299 114.117C423.713 114.117 423.166 114.006 422.658 113.783C422.15 113.557 421.758 113.248 421.48 112.857C421.207 112.467 421.07 112.023 421.07 111.527H422.201C422.201 112.043 422.391 112.451 422.77 112.752C423.152 113.049 423.662 113.197 424.299 113.197C424.893 113.197 425.348 113.076 425.664 112.834C425.98 112.592 426.139 112.262 426.139 111.844C426.139 111.426 425.992 111.104 425.699 110.877C425.406 110.646 424.875 110.42 424.105 110.197ZM431.09 113.232C431.477 113.232 431.814 113.115 432.104 112.881C432.393 112.646 432.553 112.354 432.584 112.002H433.609C433.59 112.365 433.465 112.711 433.234 113.039C433.004 113.367 432.695 113.629 432.309 113.824C431.926 114.02 431.52 114.117 431.09 114.117C430.227 114.117 429.539 113.83 429.027 113.256C428.52 112.678 428.266 111.889 428.266 110.889V110.707C428.266 110.09 428.379 109.541 428.605 109.061C428.832 108.58 429.156 108.207 429.578 107.941C430.004 107.676 430.506 107.543 431.084 107.543C431.795 107.543 432.385 107.756 432.854 108.182C433.326 108.607 433.578 109.16 433.609 109.84H432.584C432.553 109.43 432.396 109.094 432.115 108.832C431.838 108.566 431.494 108.434 431.084 108.434C430.533 108.434 430.105 108.633 429.801 109.031C429.5 109.426 429.35 109.998 429.35 110.748V110.953C429.35 111.684 429.5 112.246 429.801 112.641C430.102 113.035 430.531 113.232 431.09 113.232ZM435.912 108.428C436.393 107.838 437.018 107.543 437.787 107.543C439.127 107.543 439.803 108.299 439.814 109.811V114H438.73V109.805C438.727 109.348 438.621 109.01 438.414 108.791C438.211 108.572 437.893 108.463 437.459 108.463C437.107 108.463 436.799 108.557 436.533 108.744C436.268 108.932 436.061 109.178 435.912 109.482V114H434.828V105H435.912V108.428ZM441.15 110.771C441.15 110.15 441.271 109.592 441.514 109.096C441.76 108.6 442.1 108.217 442.533 107.947C442.971 107.678 443.469 107.543 444.027 107.543C444.891 107.543 445.588 107.842 446.119 108.439C446.654 109.037 446.922 109.832 446.922 110.824V110.9C446.922 111.518 446.803 112.072 446.564 112.564C446.33 113.053 445.992 113.434 445.551 113.707C445.113 113.98 444.609 114.117 444.039 114.117C443.18 114.117 442.482 113.818 441.947 113.221C441.416 112.623 441.15 111.832 441.15 110.848V110.771ZM442.24 110.9C442.24 111.604 442.402 112.168 442.727 112.594C443.055 113.02 443.492 113.232 444.039 113.232C444.59 113.232 445.027 113.018 445.352 112.588C445.676 112.154 445.838 111.549 445.838 110.771C445.838 110.076 445.672 109.514 445.34 109.084C445.012 108.65 444.574 108.434 444.027 108.434C443.492 108.434 443.061 108.646 442.732 109.072C442.404 109.498 442.24 110.107 442.24 110.9ZM449.459 114H448.375V105H449.459V114ZM453.83 114.117C452.971 114.117 452.271 113.836 451.732 113.273C451.193 112.707 450.924 111.951 450.924 111.006V110.807C450.924 110.178 451.043 109.617 451.281 109.125C451.523 108.629 451.859 108.242 452.289 107.965C452.723 107.684 453.191 107.543 453.695 107.543C454.52 107.543 455.16 107.814 455.617 108.357C456.074 108.9 456.303 109.678 456.303 110.689V111.141H452.008C452.023 111.766 452.205 112.271 452.553 112.658C452.904 113.041 453.35 113.232 453.889 113.232C454.271 113.232 454.596 113.154 454.861 112.998C455.127 112.842 455.359 112.635 455.559 112.377L456.221 112.893C455.689 113.709 454.893 114.117 453.83 114.117ZM453.695 108.434C453.258 108.434 452.891 108.594 452.594 108.914C452.297 109.23 452.113 109.676 452.043 110.25H455.219V110.168C455.188 109.617 455.039 109.191 454.773 108.891C454.508 108.586 454.148 108.434 453.695 108.434ZM461.254 112.318C461.254 112.025 461.143 111.799 460.92 111.639C460.701 111.475 460.316 111.334 459.766 111.217C459.219 111.1 458.783 110.959 458.459 110.795C458.139 110.631 457.9 110.436 457.744 110.209C457.592 109.982 457.516 109.713 457.516 109.4C457.516 108.881 457.734 108.441 458.172 108.082C458.613 107.723 459.176 107.543 459.859 107.543C460.578 107.543 461.16 107.729 461.605 108.1C462.055 108.471 462.279 108.945 462.279 109.523H461.189C461.189 109.227 461.062 108.971 460.809 108.756C460.559 108.541 460.242 108.434 459.859 108.434C459.465 108.434 459.156 108.52 458.934 108.691C458.711 108.863 458.6 109.088 458.6 109.365C458.6 109.627 458.703 109.824 458.91 109.957C459.117 110.09 459.49 110.217 460.029 110.338C460.572 110.459 461.012 110.604 461.348 110.771C461.684 110.939 461.932 111.143 462.092 111.381C462.256 111.615 462.338 111.902 462.338 112.242C462.338 112.809 462.111 113.264 461.658 113.607C461.205 113.947 460.617 114.117 459.895 114.117C459.387 114.117 458.938 114.027 458.547 113.848C458.156 113.668 457.85 113.418 457.627 113.098C457.408 112.773 457.299 112.424 457.299 112.049H458.383C458.402 112.412 458.547 112.701 458.816 112.916C459.09 113.127 459.449 113.232 459.895 113.232C460.305 113.232 460.633 113.15 460.879 112.986C461.129 112.818 461.254 112.596 461.254 112.318ZM471.607 111.773H468.033L467.23 114H466.07L469.328 105.469H470.312L473.576 114H472.422L471.607 111.773ZM468.373 110.848H471.273L469.82 106.857L468.373 110.848ZM478.246 112.318C478.246 112.025 478.135 111.799 477.912 111.639C477.693 111.475 477.309 111.334 476.758 111.217C476.211 111.1 475.775 110.959 475.451 110.795C475.131 110.631 474.893 110.436 474.736 110.209C474.584 109.982 474.508 109.713 474.508 109.4C474.508 108.881 474.727 108.441 475.164 108.082C475.605 107.723 476.168 107.543 476.852 107.543C477.57 107.543 478.152 107.729 478.598 108.1C479.047 108.471 479.271 108.945 479.271 109.523H478.182C478.182 109.227 478.055 108.971 477.801 108.756C477.551 108.541 477.234 108.434 476.852 108.434C476.457 108.434 476.148 108.52 475.926 108.691C475.703 108.863 475.592 109.088 475.592 109.365C475.592 109.627 475.695 109.824 475.902 109.957C476.109 110.09 476.482 110.217 477.021 110.338C477.564 110.459 478.004 110.604 478.34 110.771C478.676 110.939 478.924 111.143 479.084 111.381C479.248 111.615 479.33 111.902 479.33 112.242C479.33 112.809 479.104 113.264 478.65 113.607C478.197 113.947 477.609 114.117 476.887 114.117C476.379 114.117 475.93 114.027 475.539 113.848C475.148 113.668 474.842 113.418 474.619 113.098C474.4 112.773 474.291 112.424 474.291 112.049H475.375C475.395 112.412 475.539 112.701 475.809 112.916C476.082 113.127 476.441 113.232 476.887 113.232C477.297 113.232 477.625 113.15 477.871 112.986C478.121 112.818 478.246 112.596 478.246 112.318ZM484.434 112.318C484.434 112.025 484.322 111.799 484.1 111.639C483.881 111.475 483.496 111.334 482.945 111.217C482.398 111.1 481.963 110.959 481.639 110.795C481.318 110.631 481.08 110.436 480.924 110.209C480.771 109.982 480.695 109.713 480.695 109.4C480.695 108.881 480.914 108.441 481.352 108.082C481.793 107.723 482.355 107.543 483.039 107.543C483.758 107.543 484.34 107.729 484.785 108.1C485.234 108.471 485.459 108.945 485.459 109.523H484.369C484.369 109.227 484.242 108.971 483.988 108.756C483.738 108.541 483.422 108.434 483.039 108.434C482.645 108.434 482.336 108.52 482.113 108.691C481.891 108.863 481.779 109.088 481.779 109.365C481.779 109.627 481.883 109.824 482.09 109.957C482.297 110.09 482.67 110.217 483.209 110.338C483.752 110.459 484.191 110.604 484.527 110.771C484.863 110.939 485.111 111.143 485.271 111.381C485.436 111.615 485.518 111.902 485.518 112.242C485.518 112.809 485.291 113.264 484.838 113.607C484.385 113.947 483.797 114.117 483.074 114.117C482.566 114.117 482.117 114.027 481.727 113.848C481.336 113.668 481.029 113.418 480.807 113.098C480.588 112.773 480.479 112.424 480.479 112.049H481.562C481.582 112.412 481.727 112.701 481.996 112.916C482.27 113.127 482.629 113.232 483.074 113.232C483.484 113.232 483.812 113.15 484.059 112.986C484.309 112.818 484.434 112.596 484.434 112.318ZM490.844 113.373C490.422 113.869 489.803 114.117 488.986 114.117C488.311 114.117 487.795 113.922 487.439 113.531C487.088 113.137 486.91 112.555 486.906 111.785V107.66H487.99V111.756C487.99 112.717 488.381 113.197 489.162 113.197C489.99 113.197 490.541 112.889 490.814 112.271V107.66H491.898V114H490.867L490.844 113.373ZM494.57 107.66L494.6 108.363C495.064 107.816 495.691 107.543 496.48 107.543C497.367 107.543 497.971 107.883 498.291 108.562C498.502 108.258 498.775 108.012 499.111 107.824C499.451 107.637 499.852 107.543 500.312 107.543C501.703 107.543 502.41 108.279 502.434 109.752V114H501.35V109.816C501.35 109.363 501.246 109.025 501.039 108.803C500.832 108.576 500.484 108.463 499.996 108.463C499.594 108.463 499.26 108.584 498.994 108.826C498.729 109.064 498.574 109.387 498.531 109.793V114H497.441V109.846C497.441 108.924 496.99 108.463 496.088 108.463C495.377 108.463 494.891 108.766 494.629 109.371V114H493.545V107.66H494.57ZM506.705 114.117C505.846 114.117 505.146 113.836 504.607 113.273C504.068 112.707 503.799 111.951 503.799 111.006V110.807C503.799 110.178 503.918 109.617 504.156 109.125C504.398 108.629 504.734 108.242 505.164 107.965C505.598 107.684 506.066 107.543 506.57 107.543C507.395 107.543 508.035 107.814 508.492 108.357C508.949 108.9 509.178 109.678 509.178 110.689V111.141H504.883C504.898 111.766 505.08 112.271 505.428 112.658C505.779 113.041 506.225 113.232 506.764 113.232C507.146 113.232 507.471 113.154 507.736 112.998C508.002 112.842 508.234 112.635 508.434 112.377L509.096 112.893C508.564 113.709 507.768 114.117 506.705 114.117ZM506.57 108.434C506.133 108.434 505.766 108.594 505.469 108.914C505.172 109.23 504.988 109.676 504.918 110.25H508.094V110.168C508.062 109.617 507.914 109.191 507.648 108.891C507.383 108.586 507.023 108.434 506.57 108.434ZM510.174 110.777C510.174 109.805 510.404 109.023 510.865 108.434C511.326 107.84 511.93 107.543 512.676 107.543C513.418 107.543 514.006 107.797 514.439 108.305V105H515.523V114H514.527L514.475 113.32C514.041 113.852 513.438 114.117 512.664 114.117C511.93 114.117 511.33 113.816 510.865 113.215C510.404 112.613 510.174 111.828 510.174 110.859V110.777ZM511.258 110.9C511.258 111.619 511.406 112.182 511.703 112.588C512 112.994 512.41 113.197 512.934 113.197C513.621 113.197 514.123 112.889 514.439 112.271V109.359C514.115 108.762 513.617 108.463 512.945 108.463C512.414 108.463 512 108.668 511.703 109.078C511.406 109.488 511.258 110.096 511.258 110.9ZM523.486 110.549H521.482V114H520.352V105.469H523.176C524.137 105.469 524.875 105.688 525.391 106.125C525.91 106.562 526.17 107.199 526.17 108.035C526.17 108.566 526.025 109.029 525.736 109.424C525.451 109.818 525.053 110.113 524.541 110.309L526.545 113.93V114H525.338L523.486 110.549ZM521.482 109.629H523.211C523.77 109.629 524.213 109.484 524.541 109.195C524.873 108.906 525.039 108.52 525.039 108.035C525.039 107.508 524.881 107.104 524.564 106.822C524.252 106.541 523.799 106.398 523.205 106.395H521.482V109.629ZM530.213 114.117C529.354 114.117 528.654 113.836 528.115 113.273C527.576 112.707 527.307 111.951 527.307 111.006V110.807C527.307 110.178 527.426 109.617 527.664 109.125C527.906 108.629 528.242 108.242 528.672 107.965C529.105 107.684 529.574 107.543 530.078 107.543C530.902 107.543 531.543 107.814 532 108.357C532.457 108.9 532.686 109.678 532.686 110.689V111.141H528.391C528.406 111.766 528.588 112.271 528.936 112.658C529.287 113.041 529.732 113.232 530.271 113.232C530.654 113.232 530.979 113.154 531.244 112.998C531.51 112.842 531.742 112.635 531.941 112.377L532.604 112.893C532.072 113.709 531.275 114.117 530.213 114.117ZM530.078 108.434C529.641 108.434 529.273 108.594 528.977 108.914C528.68 109.23 528.496 109.676 528.426 110.25H531.602V110.168C531.57 109.617 531.422 109.191 531.156 108.891C530.891 108.586 530.531 108.434 530.078 108.434ZM535.416 106.125V107.66H536.6V108.498H535.416V112.43C535.416 112.684 535.469 112.875 535.574 113.004C535.68 113.129 535.859 113.191 536.113 113.191C536.238 113.191 536.41 113.168 536.629 113.121V114C536.344 114.078 536.066 114.117 535.797 114.117C535.312 114.117 534.947 113.971 534.701 113.678C534.455 113.385 534.332 112.969 534.332 112.43V108.498H533.178V107.66H534.332V106.125H535.416ZM541.785 113.373C541.363 113.869 540.744 114.117 539.928 114.117C539.252 114.117 538.736 113.922 538.381 113.531C538.029 113.137 537.852 112.555 537.848 111.785V107.66H538.932V111.756C538.932 112.717 539.322 113.197 540.104 113.197C540.932 113.197 541.482 112.889 541.756 112.271V107.66H542.84V114H541.809L541.785 113.373ZM547.557 108.633C547.393 108.605 547.215 108.592 547.023 108.592C546.312 108.592 545.83 108.895 545.576 109.5V114H544.492V107.66H545.547L545.564 108.393C545.92 107.826 546.424 107.543 547.076 107.543C547.287 107.543 547.447 107.57 547.557 107.625V108.633ZM549.584 107.66L549.619 108.457C550.104 107.848 550.736 107.543 551.518 107.543C552.857 107.543 553.533 108.299 553.545 109.811V114H552.461V109.805C552.457 109.348 552.352 109.01 552.145 108.791C551.941 108.572 551.623 108.463 551.189 108.463C550.838 108.463 550.529 108.557 550.264 108.744C549.998 108.932 549.791 109.178 549.643 109.482V114H548.559V107.66H549.584ZM558.871 112.318C558.871 112.025 558.76 111.799 558.537 111.639C558.318 111.475 557.934 111.334 557.383 111.217C556.836 111.1 556.4 110.959 556.076 110.795C555.756 110.631 555.518 110.436 555.361 110.209C555.209 109.982 555.133 109.713 555.133 109.4C555.133 108.881 555.352 108.441 555.789 108.082C556.23 107.723 556.793 107.543 557.477 107.543C558.195 107.543 558.777 107.729 559.223 108.1C559.672 108.471 559.896 108.945 559.896 109.523H558.807C558.807 109.227 558.68 108.971 558.426 108.756C558.176 108.541 557.859 108.434 557.477 108.434C557.082 108.434 556.773 108.52 556.551 108.691C556.328 108.863 556.217 109.088 556.217 109.365C556.217 109.627 556.32 109.824 556.527 109.957C556.734 110.09 557.107 110.217 557.646 110.338C558.189 110.459 558.629 110.604 558.965 110.771C559.301 110.939 559.549 111.143 559.709 111.381C559.873 111.615 559.955 111.902 559.955 112.242C559.955 112.809 559.729 113.264 559.275 113.607C558.822 113.947 558.234 114.117 557.512 114.117C557.004 114.117 556.555 114.027 556.164 113.848C555.773 113.668 555.467 113.418 555.244 113.098C555.025 112.773 554.916 112.424 554.916 112.049H556C556.02 112.412 556.164 112.701 556.434 112.916C556.707 113.127 557.066 113.232 557.512 113.232C557.922 113.232 558.25 113.15 558.496 112.986C558.746 112.818 558.871 112.596 558.871 112.318Z" fill="black"/>
<path d="M103.5 301L80.5 302L57.5 302.5H13" stroke="black" stroke-dasharray="3 3"/>
<path d="M521 301L544 302L567 302.5H611.5" stroke="black" stroke-dasharray="3 3"/>
</svg>
