<svg width="446" height="159" viewBox="0 0 446 159" fill="none" xmlns="http://www.w3.org/2000/svg">
<g opacity="0.05">
<g opacity="0.05">
<path opacity="0.05" d="M159.819 18.8931C126.96 18.4106 99.3247 122.957 25.2349 122.738H119.235C134.844 122.738 139.006 18.8931 159.819 18.8931Z" fill="#919BC9"/>
</g>
</g>
<g opacity="0.05">
<g opacity="0.05">
<path opacity="0.05" d="M286.208 18.8936C307.02 18.8936 311.182 122.739 326.791 122.739H420.792C346.702 122.958 319.065 18.4111 286.208 18.8936Z" fill="#919BC9"/>
</g>
</g>
<path opacity="0.5" d="M326.792 122.739C311.182 122.739 307.02 18.8926 286.208 18.8926C265.395 18.8926 261.233 122.739 245.624 122.739" stroke="#919BC9" stroke-dasharray="5 5"/>
<path d="M420.792 122.739C346.702 122.957 319.065 18.4116 286.208 18.8926C265.397 19.1973 261.233 122.739 245.624 122.739" stroke="black"/>
<path opacity="0.5" d="M119.235 122.739C134.844 122.739 139.006 18.8926 159.819 18.8926C180.631 18.8926 184.793 122.739 200.403 122.739" stroke="#919BC9" stroke-dasharray="5 5"/>
<path d="M25.2349 122.739C99.3247 122.957 126.961 18.4116 159.819 18.8926C180.629 19.1973 184.793 122.739 200.403 122.739" stroke="black"/>
<path d="M308.617 141V135.273H310.777C311.158 135.273 311.448 135.292 311.648 135.328C311.93 135.375 312.165 135.465 312.355 135.598C312.546 135.728 312.698 135.911 312.812 136.148C312.93 136.385 312.988 136.646 312.988 136.93C312.988 137.417 312.833 137.829 312.523 138.168C312.214 138.504 311.654 138.672 310.844 138.672H309.375V141H308.617ZM309.375 137.996H310.855C311.345 137.996 311.693 137.905 311.898 137.723C312.104 137.54 312.207 137.284 312.207 136.953C312.207 136.714 312.146 136.509 312.023 136.34C311.904 136.168 311.745 136.055 311.547 136C311.419 135.966 311.184 135.949 310.84 135.949H309.375V137.996ZM313.602 138.926C313.602 138.158 313.815 137.589 314.242 137.219C314.599 136.911 315.034 136.758 315.547 136.758C316.117 136.758 316.583 136.945 316.945 137.32C317.307 137.693 317.488 138.208 317.488 138.867C317.488 139.401 317.408 139.822 317.246 140.129C317.087 140.434 316.854 140.671 316.547 140.84C316.242 141.009 315.909 141.094 315.547 141.094C314.966 141.094 314.496 140.908 314.137 140.535C313.78 140.163 313.602 139.626 313.602 138.926ZM314.324 138.926C314.324 139.457 314.44 139.855 314.672 140.121C314.904 140.384 315.195 140.516 315.547 140.516C315.896 140.516 316.186 140.383 316.418 140.117C316.65 139.852 316.766 139.447 316.766 138.902C316.766 138.389 316.648 138.001 316.414 137.738C316.182 137.473 315.893 137.34 315.547 137.34C315.195 137.34 314.904 137.471 314.672 137.734C314.44 137.997 314.324 138.395 314.324 138.926ZM318.035 139.762L318.73 139.652C318.77 139.931 318.878 140.145 319.055 140.293C319.234 140.441 319.484 140.516 319.805 140.516C320.128 140.516 320.367 140.451 320.523 140.32C320.68 140.188 320.758 140.033 320.758 139.855C320.758 139.697 320.689 139.572 320.551 139.48C320.454 139.418 320.215 139.339 319.832 139.242C319.316 139.112 318.958 139 318.758 138.906C318.56 138.81 318.409 138.678 318.305 138.512C318.203 138.342 318.152 138.156 318.152 137.953C318.152 137.768 318.194 137.598 318.277 137.441C318.363 137.283 318.479 137.151 318.625 137.047C318.734 136.966 318.883 136.898 319.07 136.844C319.26 136.786 319.464 136.758 319.68 136.758C320.005 136.758 320.29 136.805 320.535 136.898C320.783 136.992 320.965 137.12 321.082 137.281C321.199 137.44 321.28 137.654 321.324 137.922L320.637 138.016C320.605 137.802 320.514 137.635 320.363 137.516C320.215 137.396 320.004 137.336 319.73 137.336C319.408 137.336 319.177 137.389 319.039 137.496C318.901 137.603 318.832 137.728 318.832 137.871C318.832 137.962 318.861 138.044 318.918 138.117C318.975 138.193 319.065 138.255 319.188 138.305C319.258 138.331 319.465 138.391 319.809 138.484C320.306 138.617 320.652 138.727 320.848 138.812C321.046 138.896 321.201 139.018 321.312 139.18C321.424 139.341 321.48 139.542 321.48 139.781C321.48 140.016 321.411 140.237 321.273 140.445C321.138 140.651 320.941 140.811 320.684 140.926C320.426 141.038 320.134 141.094 319.809 141.094C319.27 141.094 318.858 140.982 318.574 140.758C318.293 140.534 318.113 140.202 318.035 139.762ZM322.32 136.082V135.273H323.023V136.082H322.32ZM322.32 141V136.852H323.023V141H322.32ZM325.633 140.371L325.734 140.992C325.536 141.034 325.359 141.055 325.203 141.055C324.948 141.055 324.75 141.014 324.609 140.934C324.469 140.853 324.37 140.747 324.312 140.617C324.255 140.484 324.227 140.207 324.227 139.785V137.398H323.711V136.852H324.227V135.824L324.926 135.402V136.852H325.633V137.398H324.926V139.824C324.926 140.025 324.938 140.154 324.961 140.211C324.987 140.268 325.027 140.314 325.082 140.348C325.139 140.382 325.22 140.398 325.324 140.398C325.402 140.398 325.505 140.389 325.633 140.371ZM326.328 136.082V135.273H327.031V136.082H326.328ZM326.328 141V136.852H327.031V141H326.328ZM329.258 141L327.68 136.852H328.422L329.312 139.336C329.409 139.604 329.497 139.883 329.578 140.172C329.641 139.953 329.728 139.69 329.84 139.383L330.762 136.852H331.484L329.914 141H329.258ZM334.945 139.664L335.672 139.754C335.557 140.178 335.345 140.508 335.035 140.742C334.725 140.977 334.329 141.094 333.848 141.094C333.241 141.094 332.759 140.908 332.402 140.535C332.048 140.16 331.871 139.635 331.871 138.961C331.871 138.263 332.051 137.721 332.41 137.336C332.77 136.951 333.236 136.758 333.809 136.758C334.363 136.758 334.816 136.947 335.168 137.324C335.52 137.702 335.695 138.233 335.695 138.918C335.695 138.96 335.694 139.022 335.691 139.105H332.598C332.624 139.561 332.753 139.91 332.984 140.152C333.216 140.395 333.505 140.516 333.852 140.516C334.109 140.516 334.329 140.448 334.512 140.312C334.694 140.177 334.839 139.961 334.945 139.664ZM332.637 138.527H334.953C334.922 138.178 334.833 137.917 334.688 137.742C334.464 137.471 334.173 137.336 333.816 137.336C333.493 137.336 333.221 137.444 333 137.66C332.781 137.876 332.66 138.165 332.637 138.527ZM338.617 139.16L339.332 139.098C339.366 139.384 339.444 139.62 339.566 139.805C339.691 139.987 339.884 140.135 340.145 140.25C340.405 140.362 340.698 140.418 341.023 140.418C341.312 140.418 341.568 140.375 341.789 140.289C342.01 140.203 342.174 140.086 342.281 139.938C342.391 139.786 342.445 139.622 342.445 139.445C342.445 139.266 342.393 139.109 342.289 138.977C342.185 138.841 342.013 138.728 341.773 138.637C341.62 138.577 341.28 138.484 340.754 138.359C340.228 138.232 339.859 138.112 339.648 138C339.375 137.857 339.171 137.68 339.035 137.469C338.902 137.255 338.836 137.017 338.836 136.754C338.836 136.465 338.918 136.195 339.082 135.945C339.246 135.693 339.486 135.501 339.801 135.371C340.116 135.241 340.466 135.176 340.852 135.176C341.276 135.176 341.65 135.245 341.973 135.383C342.298 135.518 342.548 135.719 342.723 135.984C342.897 136.25 342.991 136.551 343.004 136.887L342.277 136.941C342.238 136.579 342.105 136.306 341.879 136.121C341.655 135.936 341.323 135.844 340.883 135.844C340.424 135.844 340.09 135.928 339.879 136.098C339.671 136.264 339.566 136.466 339.566 136.703C339.566 136.909 339.641 137.078 339.789 137.211C339.935 137.344 340.315 137.48 340.93 137.621C341.547 137.759 341.97 137.88 342.199 137.984C342.533 138.138 342.779 138.333 342.938 138.57C343.096 138.805 343.176 139.076 343.176 139.383C343.176 139.688 343.089 139.975 342.914 140.246C342.74 140.514 342.488 140.724 342.16 140.875C341.835 141.023 341.467 141.098 341.059 141.098C340.54 141.098 340.105 141.022 339.754 140.871C339.405 140.72 339.13 140.493 338.93 140.191C338.732 139.887 338.628 139.543 338.617 139.16ZM344.125 141V135.273H344.828V138.539L346.492 136.852H347.402L345.816 138.391L347.562 141H346.695L345.324 138.879L344.828 139.355V141H344.125ZM350.961 139.664L351.688 139.754C351.573 140.178 351.361 140.508 351.051 140.742C350.741 140.977 350.345 141.094 349.863 141.094C349.257 141.094 348.775 140.908 348.418 140.535C348.064 140.16 347.887 139.635 347.887 138.961C347.887 138.263 348.066 137.721 348.426 137.336C348.785 136.951 349.251 136.758 349.824 136.758C350.379 136.758 350.832 136.947 351.184 137.324C351.535 137.702 351.711 138.233 351.711 138.918C351.711 138.96 351.71 139.022 351.707 139.105H348.613C348.639 139.561 348.768 139.91 349 140.152C349.232 140.395 349.521 140.516 349.867 140.516C350.125 140.516 350.345 140.448 350.527 140.312C350.71 140.177 350.854 139.961 350.961 139.664ZM348.652 138.527H350.969C350.938 138.178 350.849 137.917 350.703 137.742C350.479 137.471 350.189 137.336 349.832 137.336C349.509 137.336 349.237 137.444 349.016 137.66C348.797 137.876 348.676 138.165 348.652 138.527ZM353.34 141L352.07 136.852H352.797L353.457 139.246L353.703 140.137C353.714 140.092 353.785 139.807 353.918 139.281L354.578 136.852H355.301L355.922 139.258L356.129 140.051L356.367 139.25L357.078 136.852H357.762L356.465 141H355.734L355.074 138.516L354.914 137.809L354.074 141H353.34Z" fill="black"/>
<path d="M86.6094 141V135.273H87.3867L90.3945 139.77V135.273H91.1211V141H90.3438L87.3359 136.5V141H86.6094ZM95.1484 139.664L95.875 139.754C95.7604 140.178 95.5482 140.508 95.2383 140.742C94.9284 140.977 94.5326 141.094 94.0508 141.094C93.444 141.094 92.9622 140.908 92.6055 140.535C92.2513 140.16 92.0742 139.635 92.0742 138.961C92.0742 138.263 92.2539 137.721 92.6133 137.336C92.9727 136.951 93.4388 136.758 94.0117 136.758C94.5664 136.758 95.0195 136.947 95.3711 137.324C95.7227 137.702 95.8984 138.233 95.8984 138.918C95.8984 138.96 95.8971 139.022 95.8945 139.105H92.8008C92.8268 139.561 92.9557 139.91 93.1875 140.152C93.4193 140.395 93.7083 140.516 94.0547 140.516C94.3125 140.516 94.5326 140.448 94.7148 140.312C94.8971 140.177 95.0417 139.961 95.1484 139.664ZM92.8398 138.527H95.1562C95.125 138.178 95.0365 137.917 94.8906 137.742C94.6667 137.471 94.3763 137.336 94.0195 137.336C93.6966 137.336 93.4245 137.444 93.2031 137.66C92.9844 137.876 92.8633 138.165 92.8398 138.527ZM96.6328 141.344L97.3164 141.445C97.3451 141.656 97.4245 141.81 97.5547 141.906C97.7292 142.036 97.9674 142.102 98.2695 142.102C98.5951 142.102 98.8464 142.036 99.0234 141.906C99.2005 141.776 99.3203 141.594 99.3828 141.359C99.4193 141.216 99.4362 140.915 99.4336 140.457C99.1263 140.819 98.7435 141 98.2852 141C97.7148 141 97.2734 140.794 96.9609 140.383C96.6484 139.971 96.4922 139.478 96.4922 138.902C96.4922 138.507 96.5638 138.142 96.707 137.809C96.8503 137.473 97.0573 137.214 97.3281 137.031C97.6016 136.849 97.9219 136.758 98.2891 136.758C98.7786 136.758 99.1823 136.956 99.5 137.352V136.852H100.148V140.438C100.148 141.083 100.082 141.54 99.9492 141.809C99.819 142.079 99.6107 142.293 99.3242 142.449C99.0404 142.605 98.6901 142.684 98.2734 142.684C97.7786 142.684 97.3789 142.572 97.0742 142.348C96.7695 142.126 96.6224 141.792 96.6328 141.344ZM97.2148 138.852C97.2148 139.396 97.3229 139.793 97.5391 140.043C97.7552 140.293 98.026 140.418 98.3516 140.418C98.6745 140.418 98.9453 140.294 99.1641 140.047C99.3828 139.797 99.4922 139.406 99.4922 138.875C99.4922 138.367 99.3789 137.984 99.1523 137.727C98.9284 137.469 98.6576 137.34 98.3398 137.34C98.0273 137.34 97.7617 137.467 97.543 137.723C97.3242 137.975 97.2148 138.352 97.2148 138.852ZM103.922 140.488C103.661 140.71 103.41 140.866 103.168 140.957C102.928 141.048 102.671 141.094 102.395 141.094C101.939 141.094 101.589 140.983 101.344 140.762C101.099 140.538 100.977 140.253 100.977 139.906C100.977 139.703 101.022 139.518 101.113 139.352C101.207 139.182 101.328 139.047 101.477 138.945C101.628 138.844 101.797 138.767 101.984 138.715C102.122 138.678 102.331 138.643 102.609 138.609C103.177 138.542 103.595 138.461 103.863 138.367C103.866 138.271 103.867 138.21 103.867 138.184C103.867 137.897 103.801 137.695 103.668 137.578C103.488 137.419 103.221 137.34 102.867 137.34C102.536 137.34 102.292 137.398 102.133 137.516C101.977 137.63 101.861 137.835 101.785 138.129L101.098 138.035C101.16 137.741 101.263 137.504 101.406 137.324C101.549 137.142 101.757 137.003 102.027 136.906C102.298 136.807 102.612 136.758 102.969 136.758C103.323 136.758 103.611 136.799 103.832 136.883C104.053 136.966 104.216 137.072 104.32 137.199C104.424 137.324 104.497 137.483 104.539 137.676C104.562 137.796 104.574 138.012 104.574 138.324V139.262C104.574 139.915 104.589 140.329 104.617 140.504C104.648 140.676 104.708 140.841 104.797 141H104.062C103.99 140.854 103.943 140.684 103.922 140.488ZM103.863 138.918C103.608 139.022 103.225 139.111 102.715 139.184C102.426 139.225 102.221 139.272 102.102 139.324C101.982 139.376 101.889 139.453 101.824 139.555C101.759 139.654 101.727 139.764 101.727 139.887C101.727 140.074 101.797 140.23 101.938 140.355C102.081 140.48 102.289 140.543 102.562 140.543C102.833 140.543 103.074 140.484 103.285 140.367C103.496 140.247 103.651 140.085 103.75 139.879C103.826 139.72 103.863 139.486 103.863 139.176V138.918ZM107.203 140.371L107.305 140.992C107.107 141.034 106.93 141.055 106.773 141.055C106.518 141.055 106.32 141.014 106.18 140.934C106.039 140.853 105.94 140.747 105.883 140.617C105.826 140.484 105.797 140.207 105.797 139.785V137.398H105.281V136.852H105.797V135.824L106.496 135.402V136.852H107.203V137.398H106.496V139.824C106.496 140.025 106.508 140.154 106.531 140.211C106.557 140.268 106.598 140.314 106.652 140.348C106.71 140.382 106.79 140.398 106.895 140.398C106.973 140.398 107.076 140.389 107.203 140.371ZM107.898 136.082V135.273H108.602V136.082H107.898ZM107.898 141V136.852H108.602V141H107.898ZM110.828 141L109.25 136.852H109.992L110.883 139.336C110.979 139.604 111.068 139.883 111.148 140.172C111.211 139.953 111.298 139.69 111.41 139.383L112.332 136.852H113.055L111.484 141H110.828ZM116.516 139.664L117.242 139.754C117.128 140.178 116.915 140.508 116.605 140.742C116.296 140.977 115.9 141.094 115.418 141.094C114.811 141.094 114.329 140.908 113.973 140.535C113.618 140.16 113.441 139.635 113.441 138.961C113.441 138.263 113.621 137.721 113.98 137.336C114.34 136.951 114.806 136.758 115.379 136.758C115.934 136.758 116.387 136.947 116.738 137.324C117.09 137.702 117.266 138.233 117.266 138.918C117.266 138.96 117.264 139.022 117.262 139.105H114.168C114.194 139.561 114.323 139.91 114.555 140.152C114.786 140.395 115.076 140.516 115.422 140.516C115.68 140.516 115.9 140.448 116.082 140.312C116.264 140.177 116.409 139.961 116.516 139.664ZM114.207 138.527H116.523C116.492 138.178 116.404 137.917 116.258 137.742C116.034 137.471 115.743 137.336 115.387 137.336C115.064 137.336 114.792 137.444 114.57 137.66C114.352 137.876 114.23 138.165 114.207 138.527ZM120.188 139.16L120.902 139.098C120.936 139.384 121.014 139.62 121.137 139.805C121.262 139.987 121.454 140.135 121.715 140.25C121.975 140.362 122.268 140.418 122.594 140.418C122.883 140.418 123.138 140.375 123.359 140.289C123.581 140.203 123.745 140.086 123.852 139.938C123.961 139.786 124.016 139.622 124.016 139.445C124.016 139.266 123.964 139.109 123.859 138.977C123.755 138.841 123.583 138.728 123.344 138.637C123.19 138.577 122.85 138.484 122.324 138.359C121.798 138.232 121.43 138.112 121.219 138C120.945 137.857 120.741 137.68 120.605 137.469C120.473 137.255 120.406 137.017 120.406 136.754C120.406 136.465 120.488 136.195 120.652 135.945C120.816 135.693 121.056 135.501 121.371 135.371C121.686 135.241 122.036 135.176 122.422 135.176C122.846 135.176 123.22 135.245 123.543 135.383C123.868 135.518 124.118 135.719 124.293 135.984C124.467 136.25 124.561 136.551 124.574 136.887L123.848 136.941C123.809 136.579 123.676 136.306 123.449 136.121C123.225 135.936 122.893 135.844 122.453 135.844C121.995 135.844 121.66 135.928 121.449 136.098C121.241 136.264 121.137 136.466 121.137 136.703C121.137 136.909 121.211 137.078 121.359 137.211C121.505 137.344 121.885 137.48 122.5 137.621C123.117 137.759 123.54 137.88 123.77 137.984C124.103 138.138 124.349 138.333 124.508 138.57C124.667 138.805 124.746 139.076 124.746 139.383C124.746 139.688 124.659 139.975 124.484 140.246C124.31 140.514 124.059 140.724 123.73 140.875C123.405 141.023 123.038 141.098 122.629 141.098C122.111 141.098 121.676 141.022 121.324 140.871C120.975 140.72 120.701 140.493 120.5 140.191C120.302 139.887 120.198 139.543 120.188 139.16ZM125.695 141V135.273H126.398V138.539L128.062 136.852H128.973L127.387 138.391L129.133 141H128.266L126.895 138.879L126.398 139.355V141H125.695ZM132.531 139.664L133.258 139.754C133.143 140.178 132.931 140.508 132.621 140.742C132.311 140.977 131.915 141.094 131.434 141.094C130.827 141.094 130.345 140.908 129.988 140.535C129.634 140.16 129.457 139.635 129.457 138.961C129.457 138.263 129.637 137.721 129.996 137.336C130.355 136.951 130.822 136.758 131.395 136.758C131.949 136.758 132.402 136.947 132.754 137.324C133.105 137.702 133.281 138.233 133.281 138.918C133.281 138.96 133.28 139.022 133.277 139.105H130.184C130.21 139.561 130.339 139.91 130.57 140.152C130.802 140.395 131.091 140.516 131.438 140.516C131.695 140.516 131.915 140.448 132.098 140.312C132.28 140.177 132.424 139.961 132.531 139.664ZM130.223 138.527H132.539C132.508 138.178 132.419 137.917 132.273 137.742C132.049 137.471 131.759 137.336 131.402 137.336C131.079 137.336 130.807 137.444 130.586 137.66C130.367 137.876 130.246 138.165 130.223 138.527ZM134.91 141L133.641 136.852H134.367L135.027 139.246L135.273 140.137C135.284 140.092 135.355 139.807 135.488 139.281L136.148 136.852H136.871L137.492 139.258L137.699 140.051L137.938 139.25L138.648 136.852H139.332L138.035 141H137.305L136.645 138.516L136.484 137.809L135.645 141H134.91Z" fill="black"/>
<path d="M427.177 128.177C427.274 128.079 427.274 127.921 427.177 127.823L425.586 126.232C425.488 126.135 425.33 126.135 425.232 126.232C425.135 126.33 425.135 126.488 425.232 126.586L426.646 128L425.232 129.414C425.135 129.512 425.135 129.67 425.232 129.768C425.33 129.865 425.488 129.865 425.586 129.768L427.177 128.177ZM239 128.25H427V127.75H239V128.25Z" fill="black"/>
<path d="M207.177 128.177C207.274 128.079 207.274 127.921 207.177 127.823L205.586 126.232C205.488 126.135 205.33 126.135 205.232 126.232C205.135 126.33 205.135 126.488 205.232 126.586L206.646 128L205.232 129.414C205.135 129.512 205.135 129.67 205.232 129.768C205.33 129.865 205.488 129.865 205.586 129.768L207.177 128.177ZM19 128.25H207V127.75H19V128.25Z" fill="black"/>
<path d="M239.177 3.82322C239.079 3.72559 238.921 3.72559 238.823 3.82322L237.232 5.41421C237.135 5.51184 237.135 5.67014 237.232 5.76777C237.33 5.8654 237.488 5.8654 237.586 5.76777L239 4.35355L240.414 5.76777C240.512 5.8654 240.67 5.8654 240.768 5.76777C240.865 5.67014 240.865 5.51184 240.768 5.41421L239.177 3.82322ZM239.25 128L239.25 4H238.75L238.75 128H239.25Z" fill="black"/>
<path d="M19.1768 3.82322C19.0791 3.72559 18.9209 3.72559 18.8232 3.82322L17.2322 5.41421C17.1346 5.51184 17.1346 5.67014 17.2322 5.76777C17.3299 5.8654 17.4882 5.8654 17.5858 5.76777L19 4.35355L20.4142 5.76777C20.5118 5.8654 20.6701 5.8654 20.7678 5.76777C20.8654 5.67014 20.8654 5.51184 20.7678 5.41421L19.1768 3.82322ZM19.25 128L19.25 4H18.75L18.75 128H19.25Z" fill="black"/>
</svg>
